<svg width="20" height="20" viewBox="0 0 20 20" fill="none" xmlns="http://www.w3.org/2000/svg">
<circle cx="10" cy="10" r="10" fill="#E9E9E9"/>
<g clip-path="url(#clip0_77_1761)">
<path d="M10.9384 10.0144L13.765 12.8404C13.827 12.9025 13.8761 12.9762 13.9096 13.0572C13.9431 13.1383 13.9603 13.2252 13.9602 13.3129C13.9602 13.4006 13.9428 13.4874 13.9092 13.5684C13.8755 13.6494 13.8263 13.723 13.7642 13.7849C13.7021 13.8469 13.6285 13.896 13.5474 13.9295C13.4663 13.963 13.3795 13.9802 13.2918 13.9801C13.2041 13.9801 13.1172 13.9627 13.0362 13.9291C12.9552 13.8955 12.8817 13.8462 12.8197 13.7841L9.9931 10.9575L7.14776 13.8029C7.02167 13.9289 6.85066 13.9998 6.67234 13.9998C6.49402 13.9998 6.32301 13.9289 6.19692 13.8029C6.07084 13.6768 6 13.5058 6 13.3274C6 13.1491 6.07084 12.9781 6.19692 12.852L9.04281 10.0061L6.21621 7.17952C6.09661 7.05335 6.03099 6.88548 6.03332 6.71166C6.03564 6.53783 6.10573 6.37177 6.22865 6.24885C6.35158 6.12592 6.51763 6.05584 6.69146 6.05351C6.86529 6.05119 7.03316 6.11681 7.15933 6.2364L9.98593 9.06301L12.8506 6.19839C12.9766 6.0723 13.1477 6.00146 13.326 6.00146C13.5043 6.00146 13.6753 6.0723 13.8014 6.19839C13.9275 6.32448 13.9983 6.49549 13.9983 6.67381C13.9983 6.85212 13.9275 7.02313 13.8014 7.14922L10.9384 10.0144Z" fill="white"/>
</g>
<defs>
<clipPath id="clip0_77_1761">
<rect width="8" height="8" fill="white" transform="translate(6 6)"/>
</clipPath>
</defs>
</svg>
