<svg width="20" height="18" viewBox="0 0 20 18" fill="none" xmlns="http://www.w3.org/2000/svg">
<path d="M17.8125 3.0625H8.35688L7.37313 1.22313C7.2665 1.02341 7.10759 0.856445 6.91339 0.740081C6.7192 0.623716 6.49702 0.562334 6.27063 0.5625H2.1875C1.49812 0.5625 0.9375 1.12313 0.9375 1.8125V16.1875C0.9375 16.8769 1.49812 17.4375 2.1875 17.4375H17.8125C18.5019 17.4375 19.0625 16.8769 19.0625 16.1875V4.3125C19.0625 3.62313 18.5019 3.0625 17.8125 3.0625ZM2.1875 1.8125H6.27063L7.6075 4.3125H17.8125V6.22625C17.8044 6.22625 17.7969 6.22375 17.7887 6.22375H2.21187C2.20375 6.22375 2.19625 6.22625 2.1875 6.22625V1.8125ZM2.1875 16.1875V14.3125L2.21187 7.47375L17.8125 7.4975V14.3125H17.8138V16.1875H2.1875Z" fill="#648CEB"/>
</svg>
