<svg width="18" height="18" viewBox="0 0 18 18" fill="none" xmlns="http://www.w3.org/2000/svg">
<path d="M14.0625 3C14.6851 2.99996 15.2841 3.23817 15.7367 3.66575C16.1892 4.09334 16.461 4.6779 16.4963 5.2995L16.5 5.4375V12.5625C16.5 13.1851 16.2618 13.7841 15.8342 14.2367C15.4067 14.6892 14.8221 14.961 14.2005 14.9963L14.0625 15H7.68675C7.11514 15.0002 6.56164 14.7995 6.123 14.433L6.00675 14.3288L2.25975 10.7663C1.79151 10.3207 1.51938 9.70748 1.50321 9.06136C1.48703 8.41524 1.72814 7.78914 2.1735 7.32075L2.25975 7.23375L6.00675 3.67125C6.42096 3.27744 6.96038 3.04171 7.53075 3.00525L7.68675 3H14.0618H14.0625ZM8.5845 6.29775C8.47618 6.21651 8.34219 6.17707 8.20713 6.18667C8.07206 6.19626 7.945 6.25426 7.84925 6.35C7.75351 6.44575 7.69552 6.57281 7.68592 6.70788C7.67632 6.84294 7.71576 6.97693 7.797 7.08525L7.85175 7.1475L9.705 9L7.8525 10.8525L7.7985 10.9155C7.71834 11.0238 7.67975 11.1574 7.68974 11.2918C7.69973 11.4262 7.75765 11.5525 7.85294 11.6478C7.94824 11.7431 8.07459 11.801 8.20899 11.811C8.34339 11.821 8.47691 11.7824 8.58525 11.7023L8.64825 11.6475L10.5 9.79575L12.3525 11.6483L12.4155 11.7023C12.5239 11.7829 12.6576 11.8218 12.7924 11.812C12.9271 11.8021 13.0538 11.7441 13.1492 11.6485C13.2447 11.553 13.3026 11.4262 13.3123 11.2915C13.3221 11.1568 13.283 11.023 13.2023 10.9148L13.1475 10.8525L11.295 9L13.1475 7.1475L13.2023 7.0845C13.2829 6.97613 13.3218 6.84236 13.312 6.70763C13.3021 6.57291 13.2441 6.44624 13.1485 6.35076C13.053 6.25529 12.9262 6.1974 12.7915 6.18766C12.6568 6.17793 12.523 6.21701 12.4148 6.29775L12.3518 6.3525L10.5 8.20425L8.64825 6.35175L8.58525 6.29775H8.5845Z" fill="#333333"/>
</svg>
