<svg width="16" height="16" viewBox="0 0 16 16" fill="none" xmlns="http://www.w3.org/2000/svg">
<path d="M1.6802 0.093811C1.20812 0.093811 0.690796 0.4761 0.690796 0.949215V15.0548C0.690796 15.5259 1.19657 15.91 1.66777 15.91C2.13867 15.91 2.65717 15.5258 2.65717 15.0546V0.949338C2.65717 0.476241 2.15127 0.0939341 1.6802 0.0939341V0.093811ZM11.8346 1.26778C9.06013 1.26778 9.06013 0.130585 6.28582 0.130585C4.68432 0.130585 3.44766 0.877725 3.44766 0.877725L3.43609 9.39104C3.43609 9.39104 4.68432 8.64492 6.28584 8.64492C9.06015 8.64492 9.06015 9.78212 11.8346 9.78212C13.5703 9.78212 15.3137 8.87078 15.3137 8.87078V0.358327C15.3137 0.358327 13.5703 1.26777 11.8346 1.26777L11.8346 1.26778Z" fill="#868F9A"/>
</svg>
