<svg width="44" height="44" viewBox="0 0 44 44" fill="none" xmlns="http://www.w3.org/2000/svg">
<circle cx="22" cy="22" r="22" fill="#B8CCEF"/>
<circle cx="22" cy="22" r="20" fill="#87A8EB"/>
<path d="M29.875 20.3125V16.375L28.5908 17.6592C27.8738 16.5729 26.8986 15.6814 25.7525 15.0645C24.6064 14.4476 23.3252 14.1246 22.0236 14.1245C17.6744 14.1245 14.1481 17.6502 14.1481 22C14.1481 26.3498 17.6744 29.8756 22.0236 29.8756C23.591 29.8759 25.1228 29.4085 26.4231 28.5334C27.7234 27.6582 28.7329 26.4149 29.3226 24.9627C29.39 24.7969 29.3887 24.6111 29.3191 24.4462C29.2495 24.2813 29.1172 24.1509 28.9514 24.0835C28.8693 24.0502 28.7814 24.0333 28.6928 24.0339C28.6042 24.0345 28.5165 24.0526 28.4349 24.0871C28.27 24.1567 28.1396 24.2889 28.0722 24.4548C27.5833 25.658 26.7467 26.6881 25.6692 27.4133C24.5917 28.1385 23.3224 28.5257 22.0236 28.5256C18.4197 28.5256 15.4981 25.604 15.4981 22C15.4981 18.3961 18.4197 15.4745 22.0236 15.4745C24.3518 15.4745 26.4522 16.7063 27.6138 18.6357L25.9375 20.3125H29.875Z" fill="white"/>
</svg>
