<svg width="18" height="18" viewBox="0 0 18 18" fill="none" xmlns="http://www.w3.org/2000/svg">
<path d="M1.12511 7.31257V3.37507L2.4093 4.65926C3.12628 3.57296 4.10149 2.68145 5.24759 2.06457C6.3937 1.44768 7.67491 1.12469 8.97649 1.12451C13.3257 1.12451 16.8521 4.65026 16.8521 9.00007C16.8521 13.3499 13.3257 16.8756 8.97649 16.8756C7.40911 16.8759 5.87729 16.4086 4.57702 15.5334C3.27676 14.6582 2.26718 13.415 1.67749 11.9628C1.61013 11.7969 1.61141 11.6112 1.68103 11.4463C1.75065 11.2814 1.88292 11.1509 2.04874 11.0836C2.13084 11.0502 2.21871 11.0334 2.30733 11.034C2.39595 11.0346 2.48358 11.0526 2.56522 11.0871C2.7301 11.1567 2.86057 11.289 2.92793 11.4548C3.41677 12.6581 4.25344 13.6882 5.33092 14.4134C6.4084 15.1385 7.67771 15.5258 8.97649 15.5256C12.5804 15.5256 15.5021 12.604 15.5021 9.00007C15.5021 5.39614 12.5804 2.47451 8.97649 2.47451C6.6483 2.47451 4.54793 3.70639 3.38636 5.63576L5.06261 7.31257H1.12511Z" fill="#7395DD"/>
<circle cx="9" cy="9" r="1" fill="#7395DD"/>
</svg>
