<svg width="270" height="350" viewBox="0 0 270 350" fill="none" xmlns="http://www.w3.org/2000/svg">
<path d="M24.476 55.108V55.948H33.548V55.108H24.476ZM25.28 59.26V60.1H32.732V59.26H25.28ZM23.588 63.7V64.564H34.412V63.7H23.588ZM38.372 54.184V55.924H37.556C37.676 55.72 37.772 55.504 37.856 55.288L37.1 55.204C36.812 55.9 36.272 56.5 35.48 56.992L35.924 57.556C36.164 57.4 36.392 57.232 36.608 57.04C37.016 57.304 37.376 57.58 37.688 57.844C37.076 58.108 36.38 58.324 35.6 58.48L35.972 59.116C38.084 58.636 39.656 57.736 40.676 56.416V55.924H39.116V55.288H40.772V54.652H39.116V54.184H38.372ZM37.148 56.5H39.692C39.308 56.884 38.84 57.232 38.312 57.532C37.94 57.244 37.508 56.944 37.016 56.644C37.064 56.596 37.1 56.548 37.148 56.5ZM41.768 55.528L41.42 56.056C41.912 56.272 42.404 56.512 42.908 56.788C42.548 56.968 42.152 57.136 41.72 57.292L42.176 57.904C42.716 57.712 43.208 57.484 43.652 57.22C44.384 57.664 45.116 58.18 45.848 58.768L46.28 58.108C45.644 57.64 44.972 57.208 44.276 56.8C44.876 56.332 45.332 55.792 45.632 55.168V54.604H41.42V55.288H44.708C44.432 55.696 44.048 56.068 43.568 56.404C42.992 56.092 42.392 55.792 41.768 55.528ZM38.492 61.648H43.4V62.356H38.492V61.648ZM43.4 61.132H38.492V60.46H43.4V61.132ZM44.876 62.308C44.492 62.812 44.06 63.292 43.556 63.748C42.764 63.496 41.948 63.268 41.096 63.064L40.76 63.568C42.392 63.976 43.988 64.54 45.548 65.26L45.968 64.624C45.416 64.396 44.852 64.18 44.276 63.988C44.732 63.592 45.164 63.148 45.56 62.656L44.876 62.308ZM41.096 59.008L40.304 59.152C40.472 59.368 40.616 59.62 40.76 59.908H38.264C39.368 59.38 40.28 58.792 41 58.144C41.66 58.768 42.644 59.356 43.964 59.908H41.54C41.396 59.572 41.252 59.272 41.096 59.008ZM44.216 60.016C44.744 60.232 45.344 60.448 46.016 60.664L46.472 59.968C44.144 59.392 42.416 58.576 41.312 57.52H40.688C39.488 58.672 37.784 59.536 35.588 60.1L36.044 60.796C36.596 60.604 37.124 60.4 37.64 60.184V64.168C37.64 64.36 37.52 64.48 37.28 64.528L37.508 65.2C38.972 65.044 40.208 64.876 41.192 64.696L41.048 64.024C40.232 64.18 39.38 64.312 38.492 64.42V62.908H44.216V60.016Z" fill="#3295FA"/>
<circle cx="35" cy="35" r="15" fill="#ECF3FD"/>
<path d="M31.5076 35.421C31.6798 37.3456 32.0278 41.4145 32.0278 42.1562C32.0366 42.2301 32.0384 42.3039 32.0366 42.3777C32.0138 43.2811 31.2738 43.9982 30.3756 43.9982H30.3335C30.3212 43.9982 30.3089 43.9965 30.2966 43.9965C29.3228 43.9315 28.5864 43.0878 28.6514 42.1141C28.6514 41.5358 29.0205 37.3772 29.1945 35.384C29.2297 34.9921 29.0557 34.6107 28.7375 34.3787C27.5019 33.484 26.7848 32.0182 26.8621 30.4679C26.8621 28.0002 28.4176 26 30.3335 26C32.2493 26 33.8066 28.0002 33.8066 30.5101C33.8909 32.0551 33.1844 33.5192 31.9593 34.4191C31.6429 34.6494 31.4724 35.0308 31.5076 35.421ZM41.1869 26C41.498 26 41.7493 26.2513 41.7493 26.5624V31.3432C41.7493 32.2748 41.3715 33.1184 40.7615 33.7301C40.5366 33.9551 40.2782 34.1502 39.997 34.3049C39.8405 34.391 39.7491 34.5632 39.7702 34.7407L40.5137 41.4725C40.5752 42.847 39.5997 44 38.3764 44C37.1531 44 36.1776 42.847 36.2391 41.4725L37.0266 34.7583C37.0477 34.5826 36.958 34.4138 36.8016 34.3312C35.7294 33.7617 35 32.6386 35 31.3432V26.5624C35 26.2513 35.2513 26 35.5624 26C35.8735 26 36.1249 26.2513 36.1249 26.5624V31.2026C36.1249 31.4364 36.313 31.6245 36.5467 31.6245C36.7805 31.6245 36.9686 31.4364 36.9686 31.2026V26.5624C36.9686 26.2513 37.2199 26 37.531 26C37.8421 26 38.0934 26.2513 38.0934 26.5624V31.3432C38.0934 31.4979 38.22 31.6245 38.3747 31.6245C38.5293 31.6245 38.6559 31.4979 38.6559 31.3432V26.5624C38.6559 26.2513 38.9072 26 39.2183 26C39.5294 26 39.7808 26.2513 39.7808 26.5624V31.2026C39.7808 31.4364 39.9689 31.6245 40.2026 31.6245C40.4364 31.6245 40.6245 31.4364 40.6245 31.2026V26.5624C40.6245 26.2513 40.8758 26 41.1869 26Z" fill="#3295FA"/>
<path d="M29.012 122.872C29.54 126.328 31.148 129.04 33.836 130.984L34.376 130.096C33.056 129.196 32 128.092 31.232 126.784C32.168 126.304 32.996 125.596 33.74 124.684L33.128 124.06C32.408 124.972 31.652 125.644 30.848 126.088C30.368 125.128 30.044 124.048 29.852 122.872H34.136V122.044H29.54C29.3 121.348 29.06 120.736 28.796 120.196L27.872 120.34C28.16 120.856 28.412 121.42 28.652 122.044H23.864V122.872H28.016C27.116 124.72 25.64 126.22 23.588 127.396L24.044 128.14C24.8 127.684 25.496 127.18 26.12 126.628V129.82C26.12 130.036 25.988 130.18 25.748 130.276L25.952 131.104C27.596 130.672 29.012 130.228 30.188 129.76L30.032 128.908C29.096 129.316 28.076 129.676 26.984 129.976V125.788C27.788 124.912 28.436 123.94 28.916 122.872H29.012ZM37.184 124.3H39.116V126.304H37.184V124.3ZM39.116 123.52H37.184V121.492H39.116V123.52ZM37.172 127.084H39.116V129.796C39.116 130.228 38.96 130.444 38.66 130.444C38.372 130.444 38.072 130.42 37.736 130.396L37.94 131.164H38.9C39.572 131.164 39.908 130.792 39.908 130.072V120.712H36.404V126.472C36.392 128.152 36.152 129.544 35.672 130.624L36.32 131.224C36.812 130.144 37.1 128.764 37.172 127.084ZM41.732 125.896H42.02C42.284 127.072 42.8 128.128 43.568 129.064C43.088 129.64 42.512 130.108 41.828 130.48L42.284 131.176C43.004 130.792 43.616 130.3 44.144 129.688C44.696 130.228 45.344 130.72 46.112 131.164L46.544 130.432C45.812 130.012 45.176 129.544 44.636 129.016C45.188 128.152 45.584 127.096 45.812 125.86V125.128H41.732V121.492H44.936C44.912 122.404 44.864 122.992 44.78 123.256C44.708 123.436 44.6 123.556 44.456 123.604C44.312 123.64 44.108 123.664 43.82 123.664C43.484 123.664 43.22 123.652 43.016 123.652L43.244 124.396H44.216C44.972 124.396 45.416 124.144 45.56 123.652C45.704 123.172 45.776 122.188 45.776 120.7H40.916V131.212H41.732V125.896ZM42.764 125.896H45.044C44.828 126.844 44.504 127.672 44.06 128.392C43.448 127.648 43.016 126.82 42.764 125.896Z" fill="#333333"/>
<path d="M43.5922 99.1385L41.75 100.982C41.5953 101.137 41.3914 101.216 41.1875 101.216C40.9836 101.216 40.7797 101.139 40.625 100.982V108.295C40.625 108.606 40.3737 108.857 40.0625 108.857H35V108.875H29.9375C29.6264 108.875 29.375 108.624 29.375 108.312V101C29.2203 101.155 29.0164 101.234 28.8125 101.234C28.6086 101.234 28.4047 101.156 28.25 101L26.4078 99.156C25.8717 98.6199 25.8717 97.7533 26.4078 97.2172L29.8285 93.7965C30.0781 93.5469 30.4174 93.4062 30.7725 93.4062H32.3739C32.5092 93.4062 32.6393 93.4554 32.743 93.5433C33.0893 93.8439 33.9963 94.5312 35.0633 94.5312C36.1321 94.5312 37.0408 93.8404 37.3854 93.5416C37.4873 93.4537 37.6157 93.4045 37.7492 93.4045L39.2223 93.3939H39.2328C39.5862 93.3939 39.9272 93.5345 40.1768 93.7859L43.5922 97.2013C44.1283 97.7357 44.1283 98.6041 43.5922 99.1385Z" fill="#808994"/>
<path d="M28.472 192.124L27.968 192.592C28.412 192.856 28.832 193.156 29.24 193.504H25.604V194.224H31.004C30.392 194.728 29.72 195.184 28.976 195.568C28.28 195.304 27.548 195.076 26.792 194.86L26.36 195.496C27.968 195.94 29.54 196.552 31.064 197.32L31.508 196.636C30.968 196.372 30.404 196.12 29.828 195.892C30.668 195.388 31.436 194.788 32.156 194.104V193.504H29.6L29.9 193.156C29.468 192.748 28.988 192.412 28.472 192.124ZM28.592 190.816C27.26 191.716 25.556 192.46 23.492 193.06L23.972 193.756C25.916 193.144 27.596 192.34 28.988 191.332C30.236 192.34 31.904 193.144 33.98 193.756L34.46 193.048C32.276 192.472 30.584 191.728 29.408 190.84V188.668H33.068V190.276H33.896V187.996H29.408V187.276H33.404V186.58H24.596V187.276H28.592V187.996H24.104V190.276H24.932V188.668H28.592V190.816ZM25.532 189.328V189.892H27.98V189.328H25.532ZM25.508 190.516V191.08H27.992V190.516H25.508ZM30.044 189.328V189.892H32.456V189.328H30.044ZM30.032 190.516V191.08H32.492V190.516H30.032ZM40.688 186.22C39.32 187.612 37.592 188.788 35.516 189.724L35.936 190.48C38.024 189.508 39.716 188.344 40.988 187C42.38 188.38 44.048 189.508 46.016 190.372L46.436 189.616C44.492 188.788 42.776 187.66 41.288 186.22H40.688ZM38.792 192.148H43.376V193.132H38.792V192.148ZM43.376 191.404H38.792V190.42H43.376V191.404ZM44.888 193.672C44.42 194.212 43.892 194.716 43.316 195.184C42.632 194.872 41.9 194.56 41.12 194.272L40.64 194.86C42.608 195.616 44.228 196.432 45.5 197.296L46.04 196.648C45.428 196.264 44.756 195.892 44.036 195.532C44.6 195.088 45.128 194.584 45.62 194.032L44.888 193.672ZM37.784 197.224C39.32 196.96 40.616 196.66 41.648 196.324L41.492 195.592C40.64 195.844 39.74 196.06 38.792 196.252V193.9H44.228V189.652H41.552C41.408 189.148 41.24 188.692 41.072 188.296L40.28 188.428C40.448 188.8 40.616 189.208 40.76 189.652H37.94V195.88C37.94 196.24 37.808 196.468 37.556 196.54L37.784 197.224Z" fill="#333333"/>
<g clip-path="url(#clip0_5_522)">
<path d="M43.1239 161.651C42.8587 161.513 42.6991 161.211 42.7261 160.88C42.7908 160.087 42.5409 159.97 42.3815 159.75C42.2226 159.53 41.4126 159.504 41.1474 159.422C40.8819 159.339 40.704 158.342 40.3914 158.1C40.0665 157.85 39.2241 158.045 38.8263 158.954C38.4282 159.862 38.8263 162.146 38.8263 162.146C38.7796 162.497 38.216 162.312 38.216 162.312C37.0223 161.981 36.0738 162.146 36.0738 162.146C34.2344 162.42 32.9846 163.167 32.1374 164.108C30.5254 165.661 30.1579 167.715 30.146 168.447C30.125 169.73 30.5638 170.615 30.378 170.863C30.3513 171.055 29.5383 170.751 28.3088 170.698C26.82 170.633 25.9743 171.413 26.0006 171.716C26.027 172.019 26.611 172.211 26.8761 172.349C27.1413 172.487 27.3009 172.789 27.274 173.12C27.2093 173.913 27.4592 174.03 27.6184 174.25C27.7775 174.47 28.5874 174.496 28.8527 174.578C29.1181 174.661 29.2961 175.658 29.6086 175.9C29.9334 176.15 30.7758 175.955 31.1738 175.046C31.5717 174.138 31.1738 171.854 31.1738 171.854C31.2204 171.503 31.784 171.688 31.784 171.688C32.9778 172.019 33.9263 171.854 33.9263 171.854C35.7661 171.58 37.0163 170.832 37.8635 169.891C39.4748 168.338 39.842 166.285 39.8541 165.553C39.8751 164.27 39.4364 163.385 39.622 163.137C39.6488 162.945 40.4618 163.249 41.6913 163.302C43.1801 163.367 44.0257 162.587 43.9994 162.284C43.9731 161.981 43.3891 161.789 43.1239 161.651Z" fill="#808994"/>
</g>
<path d="M23.696 253.624V254.452H34.316V253.624H29.588C29.372 253.072 29.132 252.568 28.892 252.112L27.932 252.28C28.196 252.688 28.436 253.132 28.652 253.624H23.696ZM30.896 254.812L30.308 255.376C31.712 256.528 32.816 257.596 33.608 258.604L34.244 257.968C33.344 256.912 32.228 255.868 30.896 254.812ZM31.016 257.056C30.5 258.064 29.828 258.94 29.012 259.708C28.16 258.976 27.464 258.124 26.936 257.14L26.192 257.56C26.756 258.568 27.476 259.48 28.352 260.272C27.092 261.232 25.52 261.952 23.624 262.432L24.152 263.224C26.072 262.72 27.704 261.928 29.048 260.848C30.344 261.856 31.964 262.624 33.908 263.176L34.448 262.372C32.576 261.892 31.004 261.196 29.708 260.26C30.536 259.456 31.232 258.508 31.808 257.404L31.016 257.056ZM27.032 254.824C26.132 255.952 25.028 256.924 23.72 257.764L24.272 258.496C25.616 257.608 26.744 256.564 27.656 255.376L27.032 254.824ZM36.512 252.388L35.924 252.952C36.8 253.624 37.484 254.26 37.988 254.86L38.6 254.26C38.036 253.636 37.34 253.012 36.512 252.388ZM43.532 262.984H46.256L46.46 262.12C46.148 262.144 45.704 262.156 45.128 262.168C44.54 262.18 43.964 262.192 43.412 262.192C42.464 262.192 41.672 262.18 41.036 262.168C40.316 262.144 39.776 262.048 39.392 261.88C39.056 261.724 38.744 261.472 38.456 261.124C38.348 261.004 38.252 260.92 38.156 260.848V256.36H35.648V257.152H37.352V260.8C36.86 261.016 36.296 261.628 35.66 262.636L36.308 263.224C36.968 262.12 37.448 261.568 37.736 261.568C37.88 261.568 38.036 261.664 38.204 261.868C38.576 262.3 39.008 262.6 39.488 262.744C39.968 262.876 40.604 262.948 41.384 262.96C42.152 262.972 42.872 262.984 43.532 262.984ZM41.384 253.54L40.856 254.056C41.444 254.368 41.972 254.692 42.428 255.016H39.428V261.4H40.244V259.3H42.248V261.364H43.052V259.3H45.068V260.2C45.068 260.464 44.924 260.608 44.636 260.608L43.688 260.572L43.88 261.304H44.876C45.548 261.304 45.884 260.992 45.884 260.38V255.016H43.508L43.316 254.86C44.156 254.404 44.936 253.864 45.656 253.24V252.616H39.164V253.348H44.492C43.964 253.756 43.388 254.116 42.764 254.44C42.356 254.14 41.888 253.84 41.384 253.54ZM40.244 257.536H42.248V258.592H40.244V257.536ZM43.052 257.536H45.068V258.592H43.052V257.536ZM45.068 256.816H43.052V255.736H45.068V256.816ZM42.248 256.816H40.244V255.736H42.248V256.816Z" fill="#333333"/>
<g clip-path="url(#clip1_5_522)">
<path d="M42.1088 228.811H41.7857V227.19C41.7857 226.658 41.3943 226.025 40.9164 225.786C40.9164 225.786 39.1961 224.926 34.9886 224.926C30.7811 224.926 29.0585 225.786 29.0585 225.786C28.5807 226.025 28.1893 226.658 28.1893 227.19V228.811H27.8661C27.609 228.811 27.3626 228.913 27.1805 229.095C26.9985 229.277 26.8957 229.523 26.8945 229.78V230.752C26.8951 231.009 26.9976 231.256 27.1797 231.438C27.3618 231.62 27.6086 231.723 27.8661 231.723H28.1893V238.359C28.1902 238.56 28.253 238.755 28.3691 238.919C28.4851 239.082 28.6488 239.206 28.8378 239.274V239.815C28.8378 240.159 28.9742 240.488 29.217 240.731C29.4599 240.974 29.7892 241.11 30.1326 241.11C30.476 241.11 30.8053 240.974 31.0481 240.731C31.291 240.488 31.4274 240.159 31.4274 239.815V239.331H38.5476V239.815C38.5476 240.159 38.684 240.488 38.9268 240.731C39.1696 240.974 39.499 241.11 39.8424 241.11C40.1858 241.11 40.5151 240.974 40.7579 240.731C41.0008 240.488 41.1372 240.159 41.1372 239.815V239.274C41.3264 239.207 41.4902 239.083 41.6063 238.919C41.7224 238.755 41.785 238.56 41.7857 238.359V231.723H42.1088C42.3664 231.723 42.6132 231.62 42.7952 231.438C42.9773 231.256 43.0799 231.009 43.0805 230.752V229.78C43.0793 229.523 42.9765 229.277 42.7944 229.095C42.6124 228.913 42.366 228.811 42.1088 228.811ZM31.7505 226.544C31.7511 226.459 31.7853 226.377 31.8458 226.316C31.9063 226.256 31.9881 226.222 32.0736 226.221H37.9013C37.9868 226.222 38.0687 226.256 38.1292 226.316C38.1896 226.377 38.2239 226.459 38.2245 226.544V227.19C38.2245 227.276 38.1905 227.359 38.13 227.42C38.0694 227.481 37.9872 227.515 37.9013 227.516H32.0736C31.9877 227.515 31.9055 227.481 31.845 227.42C31.7845 227.359 31.7505 227.276 31.7505 227.19V226.544ZM30.2942 238.036C30.1339 238.036 29.9773 237.988 29.8441 237.899C29.7109 237.81 29.607 237.684 29.5457 237.536C29.4844 237.388 29.4684 237.225 29.4996 237.068C29.5309 236.91 29.608 236.766 29.7213 236.653C29.8346 236.54 29.979 236.462 30.1361 236.431C30.2933 236.4 30.4561 236.416 30.6042 236.477C30.7522 236.539 30.8787 236.642 30.9677 236.776C31.0567 236.909 31.1042 237.065 31.1042 237.226C31.1036 237.44 31.0181 237.646 30.8663 237.798C30.7145 237.95 30.5088 238.035 30.2942 238.036ZM39.6808 238.036C39.5206 238.036 39.364 237.988 39.2308 237.899C39.0975 237.81 38.9937 237.684 38.9324 237.536C38.8711 237.388 38.855 237.225 38.8863 237.068C38.9175 236.91 38.9947 236.766 39.108 236.653C39.2213 236.54 39.3656 236.462 39.5228 236.431C39.6799 236.4 39.8428 236.416 39.9908 236.477C40.1389 236.539 40.2654 236.642 40.3544 236.776C40.4434 236.909 40.4909 237.065 40.4909 237.226C40.4909 237.441 40.4056 237.647 40.2536 237.798C40.1017 237.95 39.8957 238.036 39.6808 238.036ZM40.4909 234.313C40.4903 234.398 40.4561 234.48 40.3956 234.541C40.3351 234.601 40.2533 234.635 40.1678 234.636H29.8095C29.7235 234.636 29.6411 234.602 29.5802 234.542C29.5192 234.481 29.4847 234.399 29.4841 234.313V229.134C29.4847 229.048 29.5192 228.966 29.5802 228.905C29.6411 228.845 29.7235 228.811 29.8095 228.811H40.1678C40.2533 228.811 40.3351 228.845 40.3956 228.906C40.4561 228.966 40.4903 229.048 40.4909 229.134V234.313Z" fill="#808994"/>
</g>
<path d="M29.648 320.38H34.1V319.564H30.068C30.224 319.216 30.368 318.832 30.512 318.424L29.696 318.1C29.24 319.54 28.568 320.692 27.668 321.556L28.316 322.12C28.808 321.664 29.252 321.076 29.648 320.38ZM33.836 323.524C33.38 324.016 32.84 324.436 32.192 324.772C31.952 324.076 31.784 323.308 31.688 322.468C32.408 322.3 33.092 322.108 33.74 321.868L33.296 321.124C31.952 321.628 30.524 321.952 29.012 322.12V327.868C29.012 328.06 28.94 328.204 28.796 328.276L28.988 329.068C30.14 328.804 31.124 328.552 31.952 328.288L31.796 327.472C31.16 327.676 30.512 327.856 29.864 328.024V322.792C30.224 322.744 30.584 322.684 30.944 322.624C31.28 325.492 32.3 327.664 34.004 329.152L34.556 328.432C33.668 327.652 32.972 326.68 32.48 325.528C33.224 325.144 33.86 324.688 34.388 324.16L33.836 323.524ZM23.708 319.9V320.74H24.728V322.576C24.704 325.336 24.284 327.352 23.444 328.6L24.104 329.188C24.968 327.892 25.448 325.876 25.52 323.164H27.056C27.044 325.708 26.996 327.22 26.9 327.712C26.804 328.144 26.468 328.36 25.916 328.36C25.772 328.36 25.592 328.336 25.376 328.312L25.58 329.092C25.796 329.116 25.964 329.128 26.06 329.128C27.02 329.128 27.56 328.756 27.68 328.036C27.812 327.328 27.884 325.432 27.884 322.36H25.532V320.74H28.064V319.9H26.024L26.444 319.744C26.288 319.24 26.072 318.7 25.796 318.112L24.968 318.34C25.232 318.844 25.448 319.372 25.628 319.9H23.708ZM40.1 318.964V319.816H45.848V318.964H40.1ZM39.776 322.012V322.864H43.556V327.892C43.556 328.204 43.352 328.36 42.968 328.36C42.44 328.36 41.9 328.336 41.324 328.3L41.504 329.152H43.268C44.036 329.152 44.432 328.804 44.432 328.108V322.864H46.376V322.012H39.776ZM38.204 318.304C37.64 319.432 36.74 320.44 35.492 321.328L35.744 322.192C37.232 321.172 38.312 319.996 38.984 318.664L38.204 318.304ZM38.768 321.04C38.096 322.372 37.028 323.548 35.564 324.58L35.816 325.444C36.392 325.048 36.908 324.628 37.388 324.196V329.2H38.24V323.32C38.768 322.72 39.2 322.072 39.548 321.4L38.768 321.04Z" fill="#333333"/>
<g clip-path="url(#clip2_5_522)">
<path d="M43.5554 307.146H41.615C41.417 307.146 41.255 306.934 41.255 306.734L41.2532 306.785C41.264 305.068 40.6538 301.655 37.6874 297.286L37.6784 297.276C37.6564 297.244 37.6445 297.207 37.6442 297.169C37.6442 297.09 37.7666 297.024 37.835 296.998L37.7612 296.997C39.527 296.309 41.2838 297.265 42.002 297.773L42.0038 297.771C42.0317 297.792 42.0656 297.804 42.1007 297.805C42.1358 297.807 42.1704 297.797 42.1996 297.777C42.2289 297.758 42.2514 297.73 42.2641 297.697C42.2767 297.665 42.2788 297.629 42.2702 297.595L42.2666 297.577C41.6852 295.273 39.806 294.58 39.0878 294.398V294.392C39.0562 294.386 39.0269 294.372 39.0028 294.35C38.9787 294.329 38.9607 294.302 38.9506 294.271C38.9406 294.24 38.9388 294.208 38.9455 294.176C38.9522 294.145 38.9671 294.116 38.9888 294.092C39.6458 293.299 40.8158 293.263 41.5106 293.294V293.292C41.5556 293.292 41.5987 293.273 41.6303 293.241C41.662 293.209 41.6798 293.166 41.6798 293.121C41.6799 293.096 41.6742 293.07 41.6633 293.047C41.6524 293.024 41.6365 293.004 41.6168 292.988C39.5252 291.331 37.4084 292.538 36.665 292.975L36.6434 292.993C36.7172 292.901 36.6056 292.997 36.5732 292.997C36.5494 292.997 36.5259 292.992 36.5039 292.983C36.4819 292.973 36.462 292.96 36.4453 292.943C36.4285 292.926 36.4153 292.906 36.4064 292.884C36.3974 292.862 36.393 292.839 36.3932 292.815H36.3878C36.3194 291.419 36.5246 290.69 36.7712 290.252C36.7882 290.221 36.7953 290.186 36.7915 290.151C36.7876 290.116 36.7731 290.083 36.7498 290.057C36.7264 290.031 36.6956 290.012 36.6614 290.004C36.6272 289.996 36.5913 289.999 36.5588 290.013L36.5606 290.016C35.261 290.501 34.4024 291.795 34.1144 292.269V292.235C34.0838 292.289 34.0244 292.359 33.9596 292.359C33.9172 292.359 33.8763 292.344 33.8444 292.316L33.8408 292.287C32.0948 291.185 30.518 291.439 29.7116 291.804L29.7044 291.806C29.6711 291.82 29.6432 291.845 29.625 291.876C29.6068 291.907 29.5993 291.943 29.6036 291.979C29.607 292.018 29.6237 292.055 29.6509 292.083C29.6781 292.111 29.7141 292.129 29.753 292.134L29.762 292.13C30.4658 292.244 31.5782 292.656 32.0858 294.144H32.1326C32.1426 294.168 32.1475 294.193 32.147 294.218C32.1466 294.244 32.1407 294.269 32.1298 294.292C32.1189 294.315 32.1033 294.336 32.0839 294.353C32.0646 294.369 32.0419 294.382 32.0174 294.389L32.0012 294.392C31.3316 294.625 28.9772 295.777 30.131 299.3C30.149 299.375 30.2156 299.433 30.2966 299.433C30.3758 299.433 30.4424 299.379 30.4604 299.305C30.8042 298.484 31.6376 296.84 32.9498 296.854L32.831 296.856C32.93 296.856 33.011 296.937 33.011 297.038L33.0092 297.058C32.9318 297.863 32.885 301.032 34.8794 301.96L34.865 301.981C34.8866 301.99 34.91 301.997 34.937 301.997C34.9628 301.997 34.9881 301.991 35.0112 301.98C35.0342 301.968 35.0543 301.951 35.0699 301.931C35.0856 301.91 35.0963 301.887 35.1013 301.861C35.1064 301.836 35.1056 301.81 35.099 301.785L35.0612 301.609C34.847 300.555 34.5572 298.057 36.1916 297.713L36.2024 297.775C36.2114 297.773 36.2168 297.713 36.2258 297.713C36.305 297.713 36.3716 297.773 36.395 297.845L36.4022 297.854C36.9638 299.192 38.2328 302.138 37.313 306.797H37.3112C37.2824 306.966 37.1348 307.143 36.9584 307.143H32.4044C32.6168 307.1 32.777 306.939 32.777 306.714H32.849C33.2342 306.714 33.5942 306.419 33.5942 306.03V301.816C33.5942 301.427 33.092 301.254 32.75 301.254H32.471L32.4746 300.487C32.4746 300.289 32.3054 300.127 32.0948 300.127H30.2228C30.0176 300.127 29.9456 300.269 29.9456 300.444L29.9366 301.25L29.5622 301.248C29.15 301.248 28.817 301.558 28.817 301.942V306.039C28.817 306.42 29.0798 306.731 29.492 306.731H29.4956C29.4956 306.952 29.753 307.101 29.9654 307.143H26.4464C26.1998 307.143 26 307.298 26 307.548C25.9995 307.607 26.0107 307.665 26.0329 307.72C26.0551 307.775 26.0879 307.825 26.1293 307.867C26.1708 307.909 26.2202 307.942 26.2746 307.965C26.329 307.988 26.3874 308 26.4464 308H43.5536C43.6727 307.999 43.7866 307.951 43.8703 307.866C43.9539 307.781 44.0006 307.667 44 307.548C44.0018 307.299 43.802 307.146 43.5554 307.146ZM31.904 302.558C31.904 302.457 32.03 302.372 32.1866 302.372C32.3414 302.372 32.4692 302.453 32.4692 302.558V305.288C32.4692 305.389 32.3432 305.471 32.1866 305.471C32.03 305.471 31.904 305.39 31.904 305.288V302.558ZM30.4982 300.685H31.9058V301.247H30.4982V300.684V300.685ZM29.9366 302.558C29.9366 302.457 30.0626 302.372 30.2192 302.372C30.374 302.372 30.5018 302.453 30.5018 302.558V305.288C30.5018 305.389 30.3758 305.471 30.2192 305.471C30.0626 305.471 29.9366 305.39 29.9366 305.288V302.558ZM30.7808 306.591H31.6232C31.6232 306.819 31.8806 307.101 32.093 307.143H30.293C30.5036 307.101 30.7808 306.819 30.7808 306.591Z" fill="#808994"/>
</g>
<path d="M73.816 54.688V55.492H76.444C76.072 56.176 75.64 56.824 75.136 57.448V59.476C74.572 59.632 73.996 59.764 73.42 59.872L73.648 60.772C74.152 60.652 74.644 60.52 75.136 60.376V63.892C75.136 64.228 74.98 64.408 74.668 64.408C74.5 64.408 74.224 64.384 73.828 64.336L74.032 65.2H74.932C75.64 65.2 76 64.84 76 64.144V60.1C76.468 59.932 76.936 59.764 77.404 59.572V58.696C76.948 58.888 76.48 59.056 76 59.212V57.7C76.672 56.788 77.14 56.032 77.416 55.432V54.688H73.816ZM77.848 55.504V56.308H80.032C79.312 57.628 78.736 58.444 78.28 58.756C78.232 58.78 78.184 58.804 78.112 58.828L78.304 59.56C79.192 59.524 80.032 59.488 80.824 59.44C79.84 60.472 78.616 61.24 77.176 61.732L77.668 62.488C80.056 61.624 81.868 60.016 83.092 57.652L82.348 57.256C82.084 57.76 81.784 58.24 81.448 58.684C80.728 58.732 80.008 58.78 79.288 58.816C79.768 58.312 80.32 57.484 80.956 56.308H84.448V55.504H81.736C81.532 55.012 81.328 54.568 81.112 54.184L80.188 54.328C80.416 54.676 80.632 55.072 80.824 55.504H77.848ZM81.664 62.884C82.564 63.688 83.296 64.456 83.848 65.2L84.52 64.528C83.896 63.784 83.14 63.04 82.264 62.308C83.056 61.492 83.74 60.532 84.34 59.416L83.572 59.008C82.18 61.636 80.092 63.412 77.296 64.348L77.812 65.128C79.264 64.612 80.548 63.868 81.664 62.884ZM85.756 59.356V60.196H90.808V63.76C90.808 64.12 90.616 64.312 90.232 64.312C89.536 64.312 88.9 64.3 88.3 64.276L88.528 65.116H90.58C91.312 65.116 91.684 64.756 91.684 64.036V60.196H96.244V59.356H91.684V58.096C92.908 57.292 93.988 56.44 94.936 55.54V54.724H87.016V55.54H93.76C92.824 56.356 91.84 57.064 90.808 57.652V59.356H85.756Z" fill="#333333"/>
<g clip-path="url(#clip3_5_522)">
<path d="M92.1704 33.1041C92.1436 33.1041 92.118 33.1052 92.0912 33.1064C91.2559 29.9581 88.3876 27.6396 84.9773 27.6396C84.2302 27.6396 83.5075 27.7512 82.8284 27.9586C82.8451 28.0065 82.8551 28.0567 82.8585 28.1091C82.8596 28.1292 82.8696 28.2787 82.9153 28.4816C83.0213 28.9667 83.3224 29.763 84.1588 29.8745C84.7855 29.9581 85.2573 29.9749 85.5929 29.966C86.0502 29.9548 86.2565 29.8968 86.2598 29.8957C86.552 29.7976 86.8631 29.9581 86.9613 30.2503C87.0583 30.5414 86.8955 30.8592 86.6033 30.9562C86.5487 30.9752 86.1896 31.0834 85.4323 31.0834C85.0588 31.0834 84.5893 31.0577 84.0116 30.9808C82.4492 30.7722 81.876 29.2879 81.7633 28.3768C79.8106 29.3258 78.3408 31.1146 77.8211 33.2714C76.8141 33.2814 76 34.1022 76 35.1115C76 36.1274 76.8241 36.9516 77.8401 36.9516C77.8535 36.9516 77.8657 36.9516 77.8791 36.9504C78.7334 40.0685 81.5883 42.3603 84.9773 42.3603C88.4267 42.3603 91.3228 39.9871 92.1191 36.7832C92.1358 36.7843 92.1536 36.7843 92.1704 36.7843C93.1863 36.7843 94.0105 35.9601 94.0105 34.9442C94.0105 33.9283 93.1863 33.1041 92.1704 33.1041ZM80.9626 34.6654C80.9626 33.8033 81.3875 33.1041 81.9106 33.1041C82.4336 33.1041 82.8585 33.8033 82.8585 34.6654C82.8585 35.5274 82.4336 36.2267 81.9106 36.2267C81.3875 36.2267 80.9626 35.5274 80.9626 34.6654ZM87.8679 38.6634C87.3616 39.57 86.2286 40.1555 84.9807 40.1555C83.7551 40.1555 82.631 39.5857 82.1157 38.7035C82.0787 38.6404 82.0545 38.5705 82.0445 38.4979C82.0344 38.4254 82.0388 38.3516 82.0574 38.2807C82.0759 38.2099 82.1082 38.1434 82.1525 38.085C82.1968 38.0267 82.2521 37.9777 82.3154 37.9407C82.5819 37.7857 82.9232 37.8749 83.0782 38.1404C83.3927 38.679 84.1566 39.0403 84.9807 39.0403C85.8182 39.0403 86.5866 38.6712 86.8944 38.1203C86.9299 38.0563 86.9778 37.9999 87.0352 37.9544C87.0926 37.9089 87.1584 37.8752 87.2289 37.8552C87.2993 37.8352 87.373 37.8294 87.4457 37.8379C87.5185 37.8464 87.5888 37.8693 87.6527 37.9051C87.9215 38.0545 88.0174 38.3946 87.8679 38.6634ZM88.1557 36.2267C87.6326 36.2267 87.2077 35.5274 87.2077 34.6654C87.2077 33.8033 87.6326 33.1041 88.1557 33.1041C88.6787 33.1041 89.1036 33.8033 89.1036 34.6654C89.1036 35.5274 88.6787 36.2267 88.1557 36.2267Z" fill="#808994"/>
</g>
<path d="M132.828 54.676H125.412V65.152H126.276V64.228H131.952V65.14H132.828V54.676ZM126.276 63.388V59.776H131.952V63.388H126.276ZM126.276 58.936V55.516H131.952V58.936H126.276ZM137.556 58.384H140.604V60.484H137.556V58.384ZM137.508 61.276H140.604V64.792H141.492V61.276H144.756V63.364C144.756 63.868 144.528 64.12 144.096 64.12C143.688 64.12 143.244 64.096 142.764 64.072L142.992 64.924H144.372C145.212 64.924 145.632 64.504 145.632 63.664V54.676H136.692V60.436C136.668 62.08 136.272 63.436 135.504 64.504L136.164 65.092C136.932 64.084 137.376 62.812 137.508 61.276ZM144.756 60.484H141.492V58.384H144.756V60.484ZM144.756 57.58H141.492V55.516H144.756V57.58ZM140.604 55.516V57.58H137.556V55.516H140.604Z" fill="#333333"/>
<path d="M144 29.4806C144 29.8252 143.83 30.1456 143.491 30.4419C143.152 30.7382 142.686 30.9966 142.094 31.2171C141.502 31.4376 140.812 31.6098 140.025 31.7339C139.238 31.8579 138.39 31.9199 137.48 31.9199C136.57 31.9199 135.718 31.8579 134.924 31.7339C134.13 31.6098 133.437 31.4376 132.845 31.2171C132.253 30.9966 131.783 30.7382 131.437 30.4419C131.09 30.1456 130.917 29.8252 130.917 29.4806C130.917 29.1361 131.087 28.8157 131.426 28.5194C131.765 28.2231 132.231 27.9612 132.823 27.7339C133.415 27.5065 134.108 27.3273 134.903 27.1964C135.697 27.0655 136.549 27 137.458 27C138.368 27 139.22 27.0655 140.014 27.1964C140.809 27.3273 141.502 27.5065 142.094 27.7339C142.686 27.9612 143.152 28.2231 143.491 28.5194C143.83 28.8157 144 29.1361 144 29.4806ZM137.48 28.4677C136.931 28.4677 136.469 28.5573 136.094 28.7364C135.718 28.9156 135.531 29.1292 135.531 29.3773C135.531 29.6253 135.718 29.8355 136.094 30.0078C136.469 30.18 136.931 30.2661 137.48 30.2661C138.014 30.2661 138.473 30.18 138.856 30.0078C139.238 29.8355 139.43 29.6253 139.43 29.3773C139.43 29.1292 139.238 28.9156 138.856 28.7364C138.473 28.5573 138.014 28.4677 137.48 28.4677ZM130.939 31.1344C131.343 31.4376 131.856 31.7132 132.477 31.9612C133.011 32.168 133.686 32.3575 134.502 32.5297C135.318 32.702 136.303 32.7881 137.458 32.7881C138.628 32.7881 139.625 32.702 140.448 32.5297C141.271 32.3575 141.949 32.168 142.484 31.9612C143.09 31.7132 143.596 31.4376 144 31.1344V40.7674C144 40.9604 143.881 41.1843 143.643 41.4393C143.404 41.6942 143.032 41.9388 142.527 42.1731C142.022 42.4074 141.375 42.6038 140.588 42.7623C139.801 42.9208 138.859 43 137.762 43C136.65 43 135.668 42.9311 134.816 42.7933C133.964 42.6555 133.249 42.4798 132.671 42.2662C132.094 42.0525 131.657 41.8114 131.361 41.5426C131.065 41.2739 130.917 41.0155 130.917 40.7674V35.5581C130.917 34.2214 130.924 32.7468 130.939 31.1344ZM129.877 31.3411H126L127.69 36.0543L126 40.7674H129.877V31.3411Z" fill="#808994"/>
<path d="M183.932 55.984H180.008V65.02H180.836V64.216H183.092V65.02H183.932V55.984ZM180.836 63.388V56.812H183.092V63.388H180.836ZM175.592 54.232V56.656H173.672V57.496H175.592C175.556 60.784 174.836 63.184 173.444 64.684L174.08 65.248C175.616 63.616 176.408 61.036 176.456 57.496H178.052C178.028 60.712 177.98 62.644 177.908 63.268C177.812 63.952 177.452 64.3 176.84 64.3C176.552 64.3 176.216 64.276 175.832 64.252L176.048 65.044C176.48 65.068 176.78 65.092 176.96 65.092C178.016 65.092 178.604 64.588 178.724 63.604C178.844 62.716 178.904 60.4 178.904 56.656H176.456V54.232H175.592ZM195.98 56.344H193.028V54.232H192.164V56.344H189.2V65.14H190.04V64.432H195.14V65.152H195.98V56.344ZM190.04 63.628V60.7H192.164V63.628H190.04ZM193.028 60.7H195.14V63.628H193.028V60.7ZM190.04 59.908V57.16H192.164V59.908H190.04ZM193.028 57.16H195.14V59.908H193.028V57.16ZM186.632 54.4L186.02 55C186.884 55.6 187.556 56.176 188.048 56.716L188.66 56.104C188.108 55.528 187.436 54.964 186.632 54.4ZM186.332 57.28L185.708 57.868C186.572 58.48 187.244 59.056 187.736 59.608L188.348 58.996C187.796 58.42 187.124 57.856 186.332 57.28ZM187.604 60.448C187.112 61.9 186.524 63.328 185.852 64.72L186.644 65.068C187.268 63.712 187.844 62.272 188.372 60.736L187.604 60.448Z" fill="#333333"/>
<g clip-path="url(#clip4_5_522)">
<path d="M193.433 28.2463L191.445 26.2707C191.264 26.0896 191.029 26 190.795 26C190.559 26 190.324 26.0896 190.145 26.2707C189.784 26.631 189.784 27.2128 190.145 27.5731L191.433 28.865L190.48 29.858C190.169 30.1779 190.169 30.6911 190.48 31.0093C190.631 31.171 190.835 31.2501 191.037 31.2501H191.046L192.124 31.2483V39.6762C192.124 39.9891 191.871 40.251 191.56 40.251H191.549C191.243 40.2457 190.997 39.9961 190.997 39.6885V34.4367C190.997 33.0903 189.906 32.0006 188.561 32.0006C188.25 32.0006 187.999 31.7475 187.999 31.4381V27.501C187.999 26.6732 187.327 26.0018 186.499 26.0018H178.625C177.797 26.0018 177.126 26.6732 177.126 27.501V41.9541C177.126 42.049 177.048 42.1281 176.954 42.1281C176.702 42.1281 176.47 42.2265 176.298 42.3882C176.124 42.5464 176.013 42.7714 176.001 43.0228C175.978 43.5588 176.405 44 176.938 44H188.174C188.689 44 189.12 43.5887 189.125 43.0737C189.13 42.5499 188.71 42.1264 188.188 42.1264C188.083 42.1264 187.999 42.042 187.999 41.9365V34.4402C187.999 34.1291 188.25 33.8777 188.561 33.8777C188.716 33.8777 188.858 33.941 188.96 34.043C189.062 34.1449 189.125 34.2855 189.125 34.4419V39.6903C189.125 41.0366 190.217 42.1281 191.561 42.1281C192.908 42.1281 193.999 41.0349 193.999 39.6903V29.5926C193.999 29.0636 193.781 28.5872 193.433 28.2463ZM179.094 29.0934C179.094 28.4712 179.599 27.9686 180.219 27.9686H185C185.62 27.9686 186.125 28.4712 186.125 29.0934V32.1869C186.125 32.8073 185.62 33.3118 185 33.3118H180.219C179.599 33.3118 179.094 32.8073 179.094 32.1869V29.0934ZM192.874 30.1217L192.12 30.1234H191.784L192.245 29.6436L192.727 29.1427C192.823 29.2745 192.874 29.4292 192.874 29.5926V30.1217Z" fill="#808994"/>
</g>
<path d="M175.172 120.136C175.064 120.94 174.944 121.72 174.812 122.488H173.552V123.316H174.656C174.416 124.54 174.152 125.668 173.852 126.724C174.452 127.18 174.992 127.612 175.484 128.032C174.968 129.016 174.284 129.856 173.42 130.552L173.972 131.236C174.836 130.504 175.556 129.616 176.108 128.572C176.6 129.004 177.02 129.4 177.368 129.784L177.932 129.112C177.548 128.728 177.068 128.296 176.468 127.816C177.044 126.448 177.392 124.828 177.488 122.98V122.488H175.652C175.772 121.78 175.892 121.024 176.012 120.208L175.172 120.136ZM175.82 127.3C175.484 127.036 175.112 126.76 174.704 126.472C174.98 125.632 175.244 124.576 175.496 123.316H176.672C176.576 124.804 176.3 126.136 175.82 127.3ZM177.596 126.94V127.756H180.212C180.116 128.092 179.984 128.404 179.828 128.692C179.36 129.46 178.532 130.072 177.344 130.528L177.8 131.26C179.036 130.78 179.924 130.108 180.476 129.268C180.656 128.956 180.812 128.596 180.944 128.212C181.616 129.412 182.636 130.408 184.004 131.212L184.58 130.54C183.212 129.832 182.216 128.908 181.568 127.756H184.304V126.94H181.244C181.304 126.544 181.34 126.1 181.364 125.608H183.86V124.804H178.04V125.608H180.524C180.512 126.076 180.464 126.52 180.392 126.94H177.596ZM178.388 120.676V123.64H183.512V120.676H178.388ZM182.708 122.92H179.192V121.396H182.708V122.92ZM186.26 125.728H190.652V129.772C190.652 130.156 190.472 130.36 190.112 130.36C189.632 130.36 189.14 130.336 188.624 130.3L188.804 131.152H190.412C191.156 131.152 191.54 130.756 191.54 129.988V125.728H195.92V124.888H191.54V122.536H190.652V124.888H187.22C187.412 124 187.616 122.992 187.808 121.852C190.832 121.804 193.268 121.528 195.116 121L194.708 120.268C192.944 120.82 190.64 121.108 187.796 121.12C187.556 121.108 187.316 121.084 187.1 121.048C186.932 122.404 186.644 123.964 186.26 125.728ZM187.82 126.652C187.22 128.008 186.5 129.172 185.66 130.156L186.404 130.684C187.232 129.652 187.952 128.428 188.576 127.024L187.82 126.652ZM193.94 126.58L193.172 126.952C193.904 128.068 194.588 129.34 195.224 130.756L196.028 130.348C195.368 128.98 194.672 127.732 193.94 126.58Z" fill="#333333"/>
<path d="M194 100.99C194 102.252 192.953 103.275 191.66 103.275C190.368 103.275 189.321 102.252 189.321 100.99C189.321 99.7284 190.368 98.7048 191.66 98.7048C192.953 98.7048 194 99.7262 194 100.99ZM190.563 105.709C190.578 105.861 190.53 106.014 190.429 106.132C188.265 108.668 184.73 109.638 181.536 108.574C178.34 107.507 176.142 104.627 176.007 101.323C175.871 98.0181 177.823 94.9732 180.92 93.6599C184.018 92.3445 187.621 93.0333 189.987 95.3895C190.099 95.4968 190.162 95.6448 190.162 95.7972C190.162 95.9517 190.099 96.0976 189.987 96.2049C188.714 97.3658 186.072 99.9258 185.023 100.954C186.114 101.861 188.78 104.084 190.348 105.318C190.471 105.417 190.548 105.557 190.563 105.709ZM182.889 97.8164C182.889 97.31 182.469 96.9002 181.952 96.9002C181.435 96.9002 181.014 97.31 181.014 97.8164C181.014 98.3228 181.435 98.7327 181.952 98.7327C182.469 98.7327 182.889 98.3228 182.889 97.8164Z" fill="#808994"/>
<path d="M175.916 192.004V197.224H176.792V191.92C177.404 192.304 178.016 192.784 178.628 193.348L179.108 192.604C178.436 192.028 177.704 191.524 176.912 191.08C177.704 190.264 178.28 189.448 178.652 188.632V187.888H176.408L176.78 187.744C176.648 187.24 176.456 186.7 176.216 186.112L175.364 186.352C175.604 186.844 175.808 187.36 175.976 187.888H173.912V188.728H177.728C177.032 190.024 175.616 191.344 173.504 192.712L173.756 193.588C174.56 193.06 175.28 192.532 175.916 192.004ZM182.936 197.02C183.464 197.02 183.836 196.876 184.04 196.588C184.244 196.288 184.376 195.448 184.436 194.068L183.62 193.804C183.572 194.992 183.5 195.688 183.392 195.892C183.272 196.084 183.068 196.18 182.792 196.18H181.148C180.824 196.18 180.668 196.012 180.668 195.676V186.256H179.792V195.796C179.792 196.612 180.176 197.02 180.944 197.02H182.936ZM191.024 186.184C190.688 187.984 190.136 189.364 189.368 190.324L190.004 190.864C190.412 190.36 190.772 189.736 191.096 188.968H191.924C191.468 191.272 190.628 192.964 189.392 194.02L189.956 194.668C191.3 193.48 192.212 191.584 192.692 188.968H193.628C193.4 190.792 193.052 192.268 192.584 193.384C192.08 194.488 191.336 195.496 190.328 196.408L190.856 197.092C191.948 196.096 192.764 194.968 193.316 193.72C193.784 192.556 194.144 190.972 194.408 188.968H195.224C195.2 192.448 195.152 194.536 195.068 195.208C194.96 195.976 194.54 196.36 193.808 196.36C193.532 196.36 193.208 196.336 192.824 196.312L193.028 197.092C193.46 197.116 193.76 197.128 193.928 197.128C195.092 197.128 195.74 196.6 195.872 195.544C195.992 194.608 196.052 192.136 196.052 188.128H191.396C191.564 187.6 191.708 187.024 191.84 186.4L191.024 186.184ZM186.68 189.544H187.664V192.784C186.992 193.048 186.296 193.264 185.576 193.432L185.78 194.272C186.428 194.068 187.052 193.84 187.664 193.6V197.2H188.504V193.24C188.828 193.084 189.152 192.928 189.464 192.76V191.944C189.152 192.112 188.84 192.268 188.504 192.424V189.544H189.512V188.704H188.504V186.208H187.664V188.704H186.824C186.896 188.188 186.944 187.66 186.968 187.132L186.212 187.072C186.152 188.476 185.9 189.808 185.444 191.08L186.2 191.296C186.392 190.732 186.548 190.144 186.68 189.544Z" fill="#333333"/>
<g clip-path="url(#clip5_5_522)">
<path d="M185.562 167.844V174.471C185.562 174.548 185.499 174.611 185.422 174.611H184.578C184.501 174.611 184.438 174.548 184.438 174.471V167.844H177.125V174.611C177.125 175.232 177.629 175.736 178.25 175.736H191.75C192.372 175.736 192.875 175.232 192.875 174.611V167.844H185.562ZM191.75 161.674H191.012C190.899 161.674 190.832 161.547 190.896 161.454C191.17 161.046 191.304 160.598 191.275 160.153C191.242 159.622 190.975 159.162 190.505 158.821C190.168 158.577 189.72 158.399 189.245 158.318C188.384 158.174 187.471 158.418 186.673 159.009C186.245 159.327 185.854 159.733 185.506 160.225C185.283 160.54 184.814 160.54 184.59 160.225C184.242 159.733 183.852 159.325 183.423 159.009C182.627 158.418 181.715 158.172 180.853 158.318C180.379 158.399 179.93 158.577 179.593 158.821C179.124 159.16 178.856 159.621 178.823 160.153C178.795 160.598 178.927 161.046 179.203 161.454C179.266 161.547 179.201 161.674 179.087 161.674H178.25C177.007 161.674 176 162.681 176 163.924V166.174C176 166.436 176.179 166.657 176.422 166.719H193.578C193.821 166.657 194 166.436 194 166.174V163.924C194 162.681 192.993 161.674 191.75 161.674ZM186.056 161.465C186.992 159.768 188.176 159.278 189.057 159.427C189.164 159.445 190.112 159.622 190.152 160.225C190.186 160.751 189.605 161.447 188.605 161.674H186.179C186.072 161.674 186.005 161.56 186.056 161.465ZM179.945 160.225C179.983 159.622 180.931 159.447 181.04 159.427C181.922 159.28 183.107 159.768 184.04 161.465C184.093 161.558 184.024 161.674 183.917 161.674H181.491C180.493 161.445 179.911 160.751 179.945 160.225Z" fill="#808994"/>
</g>
<path d="M180.896 254.86H182.672C182.624 256.48 182.372 257.896 181.904 259.108C181.424 258.1 181.04 256.888 180.74 255.484L180.896 254.86ZM181.508 259.972C180.956 260.992 180.224 261.82 179.288 262.468L179.732 263.188C180.632 262.54 181.376 261.736 181.952 260.776C182.552 261.784 183.272 262.6 184.112 263.2L184.58 262.492C183.716 261.904 182.984 261.076 182.36 259.996C183.032 258.58 183.404 256.864 183.464 254.86H184.244V254.032H181.076C181.172 253.504 181.268 252.928 181.34 252.316L180.5 252.172C180.26 254.452 179.78 256.264 179.072 257.608L179.612 258.268C179.864 257.836 180.104 257.344 180.32 256.792C180.644 257.992 181.04 259.048 181.508 259.972ZM175.82 257.776C175.736 258.016 175.64 258.268 175.532 258.532H173.78V259.288H175.196C174.956 259.768 174.68 260.26 174.368 260.788C174.956 261.004 175.508 261.232 176.036 261.46C175.34 261.856 174.488 262.18 173.504 262.444L173.912 263.164C175.112 262.828 176.108 262.384 176.9 261.832C177.608 262.144 178.22 262.468 178.748 262.78L179.216 262.108C178.688 261.82 178.136 261.556 177.56 261.292C178.184 260.716 178.628 260.032 178.892 259.24V258.532H176.384C176.456 258.316 176.54 258.1 176.624 257.872L175.82 257.776ZM176.768 260.956C176.336 260.776 175.88 260.608 175.4 260.44C175.64 260.08 175.856 259.696 176.048 259.288H178.112C177.824 259.912 177.368 260.476 176.768 260.956ZM174.728 252.424L174.044 252.652C174.332 253.108 174.596 253.624 174.848 254.212L175.472 253.924C175.256 253.396 175.016 252.892 174.728 252.424ZM178.376 252.388C178.16 252.892 177.848 253.396 177.464 253.912L178.076 254.224C178.46 253.72 178.76 253.204 179 252.676L178.376 252.388ZM173.804 254.5V255.256H175.508C175.148 255.916 174.5 256.516 173.576 257.056L173.996 257.752C175.028 257.056 175.748 256.24 176.144 255.292V257.572H176.948V256.012C177.38 256.3 177.896 256.684 178.496 257.164L178.94 256.492C178.268 256.084 177.596 255.712 176.948 255.388V255.256H179.132V254.5H176.948V252.208H176.144V254.5H173.804ZM189.536 256.408H187.328C187.64 255.568 187.868 254.668 188.036 253.708H189.848V252.868H185.756V253.708H187.22C186.932 255.496 186.332 257.092 185.42 258.484L185.852 259.18C186.14 258.772 186.404 258.352 186.644 257.92V262.804H187.448V261.892H188.744V262.576H189.536V256.408ZM187.448 261.112V257.2H188.744V261.112H187.448ZM191.156 254.356L190.508 258.244H195.356C195.356 260.164 195.26 261.328 195.068 261.736C194.888 262.12 194.336 262.324 193.412 262.324C193.196 262.324 192.824 262.3 192.296 262.252L192.536 263.092C192.92 263.116 193.28 263.128 193.616 263.128C194.672 263.128 195.356 262.9 195.692 262.468C196.004 262.012 196.172 260.344 196.172 257.44H194.9L195.56 252.7H190.4V253.516H194.624L194.024 257.44H191.48L192.008 254.416L191.156 254.356ZM190.136 259.768V260.584H194.528V259.768H190.136Z" fill="#333333"/>
<path d="M191.75 227.375H189.73C189.189 227.375 188.725 226.99 188.625 226.457L188.419 225.354C188.394 225.22 188.278 225.125 188.143 225.125H181.859C181.723 225.125 181.607 225.222 181.583 225.354L181.375 226.456C181.275 226.988 180.811 227.373 180.27 227.373H178.25C177.007 227.375 176 228.382 176 229.625V238.625C176 239.868 177.007 240.875 178.25 240.875H191.75C192.993 240.875 194 239.868 194 238.625V229.625C194 228.382 192.993 227.375 191.75 227.375ZM178.812 230.188C178.501 230.188 178.25 229.936 178.25 229.625C178.25 229.47 178.313 229.33 178.415 229.228C178.517 229.126 178.658 229.062 178.812 229.062H179.938C180.249 229.062 180.5 229.314 180.5 229.625C180.5 229.78 180.437 229.92 180.335 230.022C180.233 230.124 180.092 230.188 179.938 230.188H178.812ZM185 239.188C182.36 239.188 180.219 237.046 180.219 234.406C180.219 231.766 182.36 229.625 185 229.625C187.64 229.625 189.781 231.766 189.781 234.406C189.781 237.046 187.64 239.188 185 239.188Z" fill="#808994"/>
<path d="M188.656 234.406C188.656 235.384 188.277 236.301 187.586 236.992C186.895 237.683 185.977 238.062 185 238.062C184.023 238.062 183.105 237.683 182.414 236.992C181.723 236.301 181.344 235.384 181.344 234.406C181.344 233.429 181.723 232.511 182.414 231.821C183.105 231.13 184.023 230.75 185 230.75C185.977 230.75 186.895 231.13 187.586 231.821C188.277 232.511 188.656 233.429 188.656 234.406Z" fill="#808994"/>
<path d="M223.84 55.252V56.068H225.868V61.564H223.624V62.368H234.388V61.564H232.132V56.068H234.16V55.252H232.132V54.148H231.256V55.252H226.744V54.148H225.868V55.252H223.84ZM226.744 61.564V60.196H231.256V61.564H226.744ZM226.744 59.452V58.12H231.256V59.452H226.744ZM226.744 57.376V56.068H231.256V57.376H226.744ZM227.368 62.656C226.408 63.34 225.22 63.94 223.804 64.468L224.344 65.164C225.784 64.6 226.996 63.952 227.98 63.208L227.368 62.656ZM230.536 62.692L230.104 63.34C231.34 63.784 232.552 64.396 233.728 65.164L234.208 64.432C233.104 63.748 231.88 63.172 230.536 62.692ZM238.06 54.124C237.508 55.996 236.608 57.664 235.384 59.128L235.66 60.028C236.116 59.524 236.548 58.984 236.932 58.432V65.224H237.784V57.04C238.204 56.236 238.552 55.384 238.84 54.484L238.06 54.124ZM244.804 64.972C245.368 64.972 245.764 64.84 245.98 64.576C246.184 64.312 246.328 63.544 246.4 62.284L245.584 62.008C245.536 63.076 245.452 63.7 245.332 63.88C245.188 64.048 244.972 64.144 244.66 64.144H240.892C240.484 64.144 240.292 63.952 240.292 63.58V58.576L242.08 58.012V62.548H242.944V57.736L244.708 57.184C244.696 58.9 244.672 59.896 244.624 60.16C244.564 60.448 244.408 60.592 244.156 60.592C243.964 60.592 243.76 60.58 243.532 60.568L243.784 61.408H243.976C244.816 61.408 245.284 61.132 245.404 60.604C245.512 60.064 245.572 58.528 245.572 55.996L242.944 56.836V54.184H242.08V57.112L240.292 57.688V55.3H239.428V57.964L238.288 58.336V59.212L239.428 58.852V63.7C239.428 64.54 239.836 64.972 240.676 64.972H244.804Z" fill="#333333"/>
<g clip-path="url(#clip6_5_522)">
<path d="M233.105 26H226.947C226.426 26 226 26.4263 226 26.9474V33.1053C226 33.6263 226.426 34.0526 226.947 34.0526H234.053V26.9474C234.053 26.4263 233.626 26 233.105 26ZM243.053 26H236.895C236.374 26 235.947 26.4263 235.947 26.9474V34.0526H243.053C243.574 34.0526 244 33.6263 244 33.1053V26.9474C244 26.4263 243.574 26 243.053 26ZM226 36.8947V43.0526C226 43.5737 226.426 44 226.947 44H233.105C233.626 44 234.053 43.5737 234.053 43.0526V35.9474H226.947C226.426 35.9474 226 36.3737 226 36.8947ZM243.053 35.9474H235.947V43.0526C235.947 43.5737 236.374 44 236.895 44H243.053C243.574 44 244 43.5737 244 43.0526V36.8947C244 36.3737 243.574 35.9474 243.053 35.9474Z" fill="#808994"/>
</g>
<path d="M223.816 123.244V124.084H226.864C226.24 126.316 225.112 128.044 223.468 129.256L224.02 129.964C225.868 128.596 227.092 126.58 227.716 123.928V123.244H223.816ZM233.104 122.092C232.312 123.124 231.436 124.048 230.464 124.852C230.104 124.18 229.792 123.46 229.54 122.692V120.148H228.652V129.808C228.652 130.168 228.484 130.36 228.172 130.36C227.716 130.36 227.224 130.336 226.72 130.3L226.9 131.152H228.472C229.18 131.152 229.54 130.768 229.54 130.024V124.564C230.428 126.652 231.928 128.5 234.016 130.108L234.544 129.328C233.032 128.32 231.796 127.06 230.86 125.536C231.88 124.744 232.864 123.76 233.8 122.608L233.104 122.092ZM237.412 125.236H240.364V127.036H237.412V125.236ZM240.364 127.84V129.448C240.364 130.492 240.844 131.02 241.828 131.02H244.912C245.476 131.02 245.86 130.912 246.076 130.708C246.292 130.492 246.424 129.868 246.496 128.848L245.68 128.572C245.632 129.388 245.548 129.856 245.428 130C245.284 130.132 245.068 130.204 244.768 130.204H242.032C241.504 130.204 241.24 129.904 241.24 129.316V127.84H245.128V121.864H241.24V120.22H240.364V121.864H236.548V128.86H237.412V127.84H240.364ZM241.24 127.036V125.236H244.276V127.036H241.24ZM244.276 124.444H241.24V122.68H244.276V124.444ZM240.364 122.68V124.444H237.412V122.68H240.364Z" fill="#333333"/>
<path d="M242.281 102.719C242.281 106.713 238.994 110 235 110C231.006 110 227.719 106.713 227.719 102.719C227.719 98.743 230.765 95.7758 232.917 93.016C233.444 92.3393 234.223 92 235 92C235.777 92 236.556 92.3393 237.083 93.016C239.235 95.7758 242.281 98.743 242.281 102.719Z" fill="#808994"/>
<path d="M237.026 101.639L233 106L234.173 102.482C234.186 102.441 234.156 102.4 234.113 102.4H232.977C232.613 102.4 232.371 102.024 232.521 101.693L234.066 98.293C234.148 98.1148 234.326 98 234.522 98H237.8L236.254 100.706C236.23 100.748 236.26 100.8 236.308 100.8H236.658C237.094 100.8 237.321 101.319 237.026 101.639Z" fill="white"/>
<path d="M174.476 318.316L173.876 318.88C174.752 319.576 175.436 320.212 175.94 320.812L176.552 320.2C175.988 319.576 175.292 318.952 174.476 318.316ZM181.484 328.984H184.268L184.484 328.12C184.16 328.144 183.704 328.156 183.128 328.168C182.528 328.18 181.94 328.192 181.364 328.192C180.44 328.192 179.672 328.18 179.048 328.168C178.352 328.144 177.812 328.048 177.452 327.88C177.116 327.724 176.816 327.472 176.528 327.124C176.432 327.016 176.348 326.932 176.252 326.86V322.36H173.732V323.152H175.448V326.8C174.944 327.016 174.38 327.628 173.732 328.636L174.38 329.224C175.052 328.12 175.532 327.568 175.82 327.568C175.964 327.568 176.12 327.664 176.276 327.868C176.648 328.3 177.068 328.6 177.524 328.744C178.004 328.876 178.628 328.948 179.384 328.96C180.14 328.972 180.836 328.984 181.484 328.984ZM177.896 318.88V319.672H183.404V318.88H177.896ZM177.164 321.604V322.432H179.684C178.748 324.796 178.04 326.056 177.536 326.2L177.752 326.956C179.888 326.752 181.616 326.5 182.936 326.188C183.08 326.524 183.212 326.884 183.332 327.256L184.1 327.052C183.596 325.636 183.02 324.376 182.372 323.272L181.664 323.5C182.012 324.124 182.336 324.772 182.624 325.444C181.604 325.684 180.32 325.9 178.76 326.068C179.288 325.348 179.876 324.136 180.536 322.432H184.28V321.604H177.164ZM186.08 319.036V319.864H190.424V319.036H186.08ZM185.612 322.276V323.116H187.28C186.68 325.3 186.2 326.632 185.84 327.124C185.792 327.148 185.732 327.172 185.648 327.196L185.852 328.012C187.34 327.748 188.732 327.388 190.004 326.932C190.124 327.208 190.244 327.496 190.364 327.808L191.108 327.424C190.604 326.212 190.064 325.096 189.488 324.064L188.756 324.424C189.068 324.976 189.368 325.564 189.68 326.212C188.744 326.56 187.796 326.836 186.848 327.028C187.208 326.236 187.628 324.94 188.108 323.116H190.88V322.276H185.612ZM192.68 318.232V320.656H191.06V321.496H192.68V321.64C192.656 324.868 191.888 327.208 190.388 328.66L191.036 329.224C192.668 327.628 193.508 325.096 193.544 321.64V321.496H195.32C195.296 324.724 195.248 326.656 195.176 327.292C195.08 327.976 194.732 328.324 194.144 328.324C193.82 328.324 193.436 328.3 193.004 328.276L193.196 329.044C193.7 329.068 194.048 329.08 194.252 329.08C195.284 329.08 195.872 328.588 195.992 327.616C196.1 326.728 196.16 324.412 196.16 320.656H193.544V318.232H192.68Z" fill="#333333"/>
<path d="M184.395 292.948C184.496 293.191 184.644 293.411 184.83 293.596C185.016 293.781 185.236 293.928 185.479 294.028C185.722 294.128 185.981 294.179 186.244 294.178C186.506 294.178 186.766 294.125 187.008 294.025C187.25 293.924 187.47 293.776 187.656 293.59C187.841 293.404 187.987 293.184 188.087 292.941C188.187 292.698 188.238 292.438 188.238 292.176C188.237 291.914 188.185 291.654 188.084 291.412C187.983 291.17 187.836 290.95 187.65 290.764C187.464 290.579 187.243 290.432 187.001 290.333C186.758 290.233 186.498 290.181 186.236 290.182C185.973 290.183 185.714 290.235 185.471 290.336C185.229 290.437 185.009 290.584 184.824 290.77C184.639 290.956 184.492 291.177 184.392 291.419C184.292 291.662 184.241 291.922 184.242 292.184C184.242 292.446 184.295 292.706 184.395 292.948Z" fill="#808994"/>
<path d="M189.77 306.452L188.78 302.78C188.762 302.69 188.726 302.618 188.69 302.546C188.654 302.294 188.546 301.934 188.24 301.52C187.61 300.674 185.306 300.26 185.09 300.476C184.874 300.692 184.208 303.05 184.208 303.05C185.396 302.96 185.99 303.23 186.296 303.482L187.286 307.118C187.448 307.694 188.024 308.036 188.6 307.874L189.014 307.766C189.59 307.622 189.932 307.028 189.77 306.452Z" fill="#808994"/>
<path d="M192.506 297.812L192.398 297.02C192.344 296.66 192.02 296.426 191.66 296.48L188.6 296.948C188.546 296.822 188.438 296.606 188.24 296.282C187.826 295.652 186.98 294.806 184.676 294.392C182.372 293.978 180.86 295.634 180.86 295.634C180.824 295.67 180.788 295.706 180.752 295.76L178.574 299.198C178.376 299.504 178.466 299.9 178.772 300.098L179.456 300.53C179.762 300.728 180.158 300.638 180.356 300.332L182.444 297.002C183.272 296.966 182.876 297.668 182.876 297.668L180.986 303.518C180.986 303.518 180.77 303.518 180.68 303.536L178.34 302.366C177.908 302.15 177.386 302.33 177.188 302.762L176.918 303.32C176.702 303.752 176.882 304.274 177.314 304.472L181.112 306.344C181.4 306.488 181.724 306.452 181.976 306.29C182.03 306.398 182.174 306.164 182.174 306.164C184.28 303.86 186.476 297.866 186.476 297.866C186.692 298.496 187.286 298.838 187.286 298.838C187.412 299.072 187.682 299.216 187.952 299.18L191.984 298.568C192.326 298.496 192.56 298.172 192.506 297.812Z" fill="#808994"/>
<path d="M126.9 122.248V123.1H130.128V125.968H127.272V126.796H130.128V129.952H126.708V130.804H134.436V129.952H131.016V126.796H133.848V125.968H131.016V123.1H134.184V122.248H130.62L131.028 122.092C130.872 121.516 130.656 120.892 130.368 120.196L129.504 120.424C129.78 121.012 130.02 121.624 130.224 122.248H126.9ZM126.192 120.136C125.616 121.984 124.692 123.628 123.42 125.056L123.696 125.968C124.152 125.5 124.572 125.008 124.956 124.48V131.224H125.808V123.184C126.288 122.344 126.684 121.456 126.996 120.508L126.192 120.136ZM140.124 126.448C140.016 128.32 139.152 129.652 137.52 130.456L137.988 131.212C139.26 130.54 140.136 129.592 140.616 128.368H144.492C144.444 129.232 144.396 129.76 144.36 129.928C144.312 130.084 144.192 130.204 144.012 130.276C143.82 130.336 143.4 130.372 142.752 130.372C142.536 130.372 142.308 130.36 142.068 130.348L142.296 131.128H142.536C143.544 131.128 144.204 131.08 144.516 130.984C144.828 130.888 145.032 130.708 145.128 130.432C145.236 130.144 145.32 129.196 145.368 127.588H140.856C140.94 127.24 140.988 126.856 141.012 126.448H146.316V125.632H142.548C142.428 125.248 142.308 124.888 142.188 124.564L141.276 124.708C141.408 124.984 141.528 125.296 141.648 125.632H138.24V126.448H140.124ZM144.756 121.936V123.436H137.664V121.936H144.756ZM137.664 124.228H145.608V121.12H141.732C141.612 120.724 141.48 120.364 141.36 120.052L140.424 120.196C140.568 120.484 140.688 120.784 140.808 121.12H136.8V125.284C136.788 127.48 136.332 129.268 135.432 130.66L136.068 131.236C137.124 129.58 137.652 127.588 137.664 125.284V124.228Z" fill="#333333"/>
<path d="M136.092 105.781V109.858C136.092 109.935 136.029 109.998 135.952 109.998H134.008C133.931 109.998 133.867 109.935 133.867 109.858V105.763C133.867 105.145 134.375 104.642 134.996 104.651C135.607 104.661 136.092 105.171 136.092 105.781Z" fill="#808994"/>
<path d="M142.32 109.436C142.32 109.747 142.069 110 141.758 110H137.357C137.28 110 137.217 109.937 137.217 109.859V105.789C137.217 104.554 136.224 103.533 134.989 103.528C133.75 103.524 132.745 104.526 132.745 105.765V109.859C132.745 109.937 132.681 110 132.604 110H128.234C127.922 110 127.671 109.749 127.671 109.438L127.673 102.09C127.673 101.765 127.814 101.454 128.06 101.242L133.883 96.1806C134.518 95.6288 135.461 95.6288 136.096 96.1806L141.921 101.242C142.167 101.454 142.308 101.764 142.308 102.089L142.32 109.436Z" fill="#808994"/>
<path d="M143.995 100.366V100.381C143.995 100.848 143.448 101.103 143.09 100.804L142.079 99.9588L138.934 97.3052L136.076 94.896C135.447 94.3653 134.53 94.3653 133.901 94.896L126.921 100.783C126.557 101.09 126 100.832 126 100.356V100.349C126 100.184 126.072 100.027 126.199 99.9219L133.539 93.7291C134.377 93.0227 135.602 93.0227 136.44 93.7291L138.704 95.6376C138.795 95.7149 138.935 95.6499 138.935 95.5304V93.687C138.935 93.3759 139.187 93.1246 139.498 93.1246H141.519C141.83 93.1246 142.081 93.3759 142.081 93.687V98.2261C142.081 98.3913 142.155 98.5494 142.281 98.6566C142.65 98.9676 143.431 99.6266 143.798 99.9359C143.923 100.041 143.995 100.198 143.995 100.366Z" fill="#808994"/>
<path d="M124.152 187.408V188.2H128.556V189.34H124.824V190.108H128.556V191.272H123.756V192.064H134.244V191.272H129.444V190.108H133.212V189.34H129.444V188.2H133.848V187.408H131.184C131.388 187.036 131.544 186.652 131.664 186.244L130.74 186.124C130.644 186.556 130.488 186.988 130.284 187.408H127.776C127.596 186.94 127.416 186.52 127.224 186.148L126.312 186.292C126.528 186.628 126.72 187 126.888 187.408H124.152ZM128.64 192.376C128.592 192.712 128.508 193.036 128.4 193.348H124.032V194.164H128.004C127.8 194.488 127.548 194.776 127.236 195.028C126.468 195.64 125.22 196.108 123.48 196.432L123.84 197.272C125.796 196.864 127.164 196.312 127.944 195.604C128.352 195.22 128.7 194.788 128.964 194.284C129.756 195.724 131.472 196.708 134.112 197.236L134.568 196.42C132.204 196.024 130.608 195.268 129.78 194.164H133.98V193.348H129.336C129.42 193.084 129.48 192.784 129.528 192.472L128.64 192.376ZM138.24 191.944C137.4 192.784 136.476 193.54 135.468 194.188L135.696 195.028C136.632 194.38 137.484 193.672 138.24 192.904V197.164H139.068V186.232H138.24V191.944ZM136.38 187.516L135.588 187.78C136.092 188.668 136.56 189.7 136.968 190.876L137.7 190.552C137.316 189.472 136.884 188.464 136.38 187.516ZM139.728 188.86V189.7H141.444C141.12 190.768 140.76 191.764 140.352 192.7C141.204 193.324 141.984 193.912 142.704 194.476C141.972 195.208 140.916 195.856 139.536 196.432L140.076 197.116C141.468 196.492 142.548 195.784 143.34 194.992C144.324 195.784 145.152 196.516 145.812 197.188L146.376 196.528C145.728 195.892 144.9 195.172 143.88 194.368C143.904 194.32 143.928 194.284 143.964 194.248C144.636 193.264 145.044 191.74 145.2 189.7H146.412V188.86H142.56C142.776 188.068 142.98 187.204 143.172 186.244L142.308 186.16C142.128 187.096 141.924 187.996 141.684 188.86H139.728ZM143.232 193.864C142.632 193.408 141.996 192.94 141.3 192.448C141.66 191.704 141.996 190.78 142.32 189.7H144.396C144.252 191.572 143.868 192.952 143.232 193.864Z" fill="#333333"/>
<g clip-path="url(#clip7_5_522)">
<path d="M143.196 175.962H138.392C137.964 175.962 137.617 175.612 137.617 175.184V166.015C137.617 165.586 137.965 165.238 138.392 165.238H138.768V161.192C138.795 160.747 139.08 159.905 139.98 159.335C140.281 159.142 140.566 158.915 140.821 158.71C141.334 158.3 141.706 158.002 142.119 158.002C142.435 158.002 142.962 158.161 142.962 159.225V165.238H143.195C143.623 165.238 143.971 165.586 143.971 166.016V175.184C143.971 175.614 143.623 175.962 143.195 175.962H143.196ZM142.174 167.959C142.174 167.885 142.159 167.813 142.131 167.745C142.103 167.676 142.062 167.615 142.01 167.563C141.958 167.51 141.896 167.469 141.828 167.441C141.76 167.413 141.687 167.398 141.613 167.398C141.539 167.398 141.466 167.412 141.398 167.44C141.33 167.468 141.268 167.51 141.215 167.562C141.163 167.614 141.122 167.676 141.093 167.744C141.065 167.812 141.051 167.885 141.051 167.959V173.036C141.051 173.185 141.11 173.328 141.215 173.433C141.32 173.538 141.463 173.598 141.612 173.598C141.761 173.598 141.904 173.538 142.009 173.433C142.114 173.328 142.174 173.185 142.174 173.036V167.959ZM133.781 166.259C133.773 166.272 133.756 166.277 133.744 166.288C133.967 168.196 134.674 174.338 134.674 174.848C134.674 175.614 133.952 175.962 133.283 175.962H130.765C130.129 175.962 129.676 175.799 129.417 175.472C129.205 175.206 129.178 174.896 129.226 174.695L130.156 166.33C130.13 166.309 130.099 166.296 130.077 166.27L126.141 161.638C126.063 161.546 126.016 161.431 126.008 161.31C126.001 161.189 126.032 161.068 126.098 160.967C126.178 160.847 128.076 158.002 131.791 158.002C135.498 158.002 137.474 160.805 137.558 160.923C137.698 161.128 137.688 161.401 137.532 161.594L133.781 166.259ZM132.852 168.356L132.722 167.233H131.181L131.057 168.356H132.851H132.852ZM131.307 162.97C131.267 162.83 131.175 162.711 131.049 162.638C130.923 162.564 130.774 162.543 130.633 162.577C130.492 162.611 130.369 162.699 130.292 162.822C130.214 162.945 130.186 163.093 130.215 163.235L130.713 165.287L131.869 165.298L131.307 162.969V162.97ZM133.004 162.55C132.857 162.523 132.706 162.555 132.583 162.64C132.461 162.724 132.377 162.854 132.349 163.001L131.93 165.298H133.072L133.456 163.203C133.482 163.057 133.45 162.905 133.365 162.783C133.28 162.66 133.15 162.576 133.004 162.55Z" fill="#808994"/>
</g>
<path d="M127.74 255.772H129.516V256.444C129.504 256.792 129.468 257.128 129.42 257.452H125.976V258.268H129.216C129.096 258.604 128.928 258.904 128.736 259.192C128.196 259.864 127.26 260.416 125.928 260.824L126.396 261.556C127.776 261.124 128.76 260.524 129.36 259.768C129.672 259.336 129.924 258.844 130.092 258.268H133.668V257.452H130.272C130.32 257.14 130.344 256.804 130.356 256.444V255.772H132.96V254.98H128.172C128.304 254.692 128.424 254.38 128.544 254.044L127.752 253.828C127.368 254.884 126.78 255.772 125.976 256.492L126.624 257.08C127.032 256.72 127.404 256.288 127.74 255.772ZM130.44 258.856L130.008 259.492C131.1 259.996 132.168 260.668 133.2 261.532L133.68 260.812C132.696 260.044 131.616 259.384 130.44 258.856ZM124.344 252.616V262.792H134.22V261.952H125.172V253.432H133.836V252.616H124.344ZM139.32 255.244V256.06H144.468C143.748 256.684 143.004 257.212 142.224 257.656V261.772C142.224 262.216 141.996 262.444 141.564 262.444C141.084 262.444 140.652 262.432 140.244 262.42L140.448 263.188H141.9C142.68 263.188 143.076 262.804 143.076 262.036V258.088C144.036 257.44 144.888 256.768 145.632 256.06V255.244H139.32ZM137.508 257.452C136.872 257.98 136.176 258.46 135.408 258.88L135.66 259.72C136.308 259.312 136.908 258.88 137.436 258.424C137.268 260.128 136.836 261.508 136.14 262.564L136.788 263.14C137.796 261.616 138.336 259.588 138.384 257.056V254.02H146.148V253.168H142.44C142.32 252.76 142.188 252.388 142.056 252.052L141.168 252.208C141.324 252.496 141.468 252.82 141.6 253.168H137.52V257.056C137.52 257.176 137.508 257.308 137.508 257.452ZM136.248 254.236L135.54 254.512C135.924 255.16 136.272 255.928 136.596 256.804L137.292 256.504C137.004 255.712 136.656 254.956 136.248 254.236Z" fill="#333333"/>
<g clip-path="url(#clip8_5_522)">
<path d="M141.011 226.646H139.991V225.126C139.991 224.507 139.325 224 138.51 224H131.49C130.675 224 130.008 224.507 130.008 225.126V226.646H128.989C127.518 226.646 126.314 227.85 126.314 229.321V239.325C126.314 240.796 127.518 242 128.989 242H141.011C142.482 242 143.686 240.796 143.686 239.325V229.321C143.686 227.85 142.482 226.646 141.011 226.646ZM138.678 235.263C138.678 235.5 138.583 235.726 138.416 235.893C138.249 236.06 138.023 236.154 137.787 236.155H136.527V237.415C136.527 237.651 136.432 237.878 136.265 238.045C136.098 238.212 135.872 238.306 135.635 238.307H134.365C134.129 238.306 133.902 238.212 133.735 238.045C133.568 237.878 133.474 237.651 133.473 237.415V236.155H132.213C131.977 236.154 131.751 236.06 131.584 235.893C131.417 235.726 131.323 235.5 131.322 235.263V233.993C131.323 233.756 131.417 233.53 131.584 233.363C131.751 233.196 131.978 233.102 132.214 233.101H133.474V231.842C133.475 231.605 133.569 231.379 133.736 231.212C133.903 231.045 134.13 230.951 134.366 230.95H135.636C135.872 230.951 136.098 231.045 136.265 231.212C136.432 231.379 136.527 231.605 136.527 231.842V233.102H137.787C138.023 233.103 138.249 233.197 138.416 233.364C138.583 233.531 138.677 233.757 138.678 233.993V235.263ZM138.696 226.646H131.305V225.759C131.305 225.347 131.749 225.008 132.292 225.008H137.708C138.251 225.008 138.695 225.346 138.695 225.759L138.696 226.646Z" fill="#808994"/>
</g>
<path d="M127.716 326.884C126.528 327.328 125.148 327.688 123.576 327.952L123.684 328.804C125.184 328.528 126.528 328.168 127.716 327.712V326.884ZM125.856 318.256C125.316 319.66 124.68 320.908 123.96 321.988C123.84 322.144 123.72 322.252 123.576 322.324L123.804 323.116C124.536 323.02 125.268 322.924 125.988 322.816C125.268 324.004 124.656 324.844 124.152 325.336C124.044 325.432 123.912 325.528 123.756 325.6L123.996 326.38C125.244 326.212 126.54 325.876 127.896 325.384V324.592C126.96 324.94 126.024 325.216 125.088 325.42C125.88 324.508 126.876 322.96 128.076 320.764L127.308 320.476C127.008 321.028 126.72 321.544 126.456 322.024C125.856 322.12 125.256 322.204 124.656 322.264C125.34 321.352 126.012 320.116 126.684 318.568L125.856 318.256ZM130.824 319.852V327.844H128.004V328.684H134.448V327.844H131.688V319.852H134.136V319.024H128.34V319.852H130.824ZM142.596 321.844H137.4V328.024C137.4 328.696 137.772 329.044 138.528 329.044H144.828C145.38 329.02 145.752 328.78 145.932 328.3C146.04 327.988 146.124 327.46 146.196 326.716L145.38 326.452C145.32 327.196 145.248 327.676 145.152 327.868C145.044 328.096 144.852 328.216 144.576 328.228H138.852C138.468 328.228 138.264 328.048 138.264 327.712V325.492H142.596V321.844ZM138.264 324.7V322.636H141.732V324.7H138.264ZM138.516 318.088C137.796 319.768 136.872 321.136 135.744 322.168L136.344 322.888C137.1 322.156 137.772 321.292 138.372 320.308H144.648C144.624 322.804 144.576 324.292 144.504 324.772C144.444 325.252 144.216 325.492 143.82 325.492C143.58 325.492 143.304 325.468 142.98 325.444L143.184 326.224C143.544 326.248 143.796 326.26 143.94 326.26C144.768 326.26 145.236 325.876 145.344 325.108C145.464 324.388 145.524 322.516 145.524 319.48H138.828C139.02 319.096 139.212 318.688 139.38 318.28L138.516 318.088Z" fill="#333333"/>
<g clip-path="url(#clip9_5_522)">
<path d="M141.022 290H128.904C126.987 290 126.562 290.537 126.562 292.569V293.575C127.832 294.236 129.433 295.077 131.22 295.645C131.718 294.077 133.205 292.939 134.962 292.939C136.717 292.939 138.203 294.074 138.702 295.639C140.504 295.047 142.082 294.158 143.362 293.457V292.568C143.363 290.537 142.937 290 141.022 290V290Z" fill="#808994"/>
<path d="M134.962 300.653C132.879 300.653 131.181 299.053 131.055 297.035C129.437 296.523 127.908 295.808 126.562 295.182V305.807C126.562 307.838 126.987 308 128.904 308H141.021C142.937 308 143.362 307.838 143.362 305.806V295.081C141.996 295.748 140.486 296.495 138.87 297.024C138.75 299.048 137.049 300.653 134.962 300.653Z" fill="#808994"/>
<path d="M135.95 294.2L135.155 295.969C135.089 296.118 135.041 296.232 135.01 296.311H134.996L134.035 294.2H132.862L134.176 296.555H133.18V297.226H134.395V297.806H133.18V298.477H134.395V299.45H135.508V298.477H136.685V297.806H135.508V297.227H136.685V296.556H135.709L137.062 294.2H135.95Z" fill="#808994"/>
</g>
<path d="M83.884 121.264H79.432C79.276 120.856 79.12 120.472 78.952 120.136L78.028 120.28C78.22 120.58 78.388 120.904 78.556 121.264H74.128V123.544H74.992V122.08H83.02V123.532H83.884V121.264ZM73.948 124.564V125.392H77.2C77.056 126.352 76.828 127.192 76.504 127.912C75.94 128.992 74.956 129.856 73.552 130.516L74.02 131.248C75.472 130.6 76.516 129.688 77.152 128.536C77.596 127.684 77.908 126.64 78.076 125.392H79.42V128.836C78.652 129.268 77.788 129.628 76.84 129.928L77.188 130.708C77.98 130.444 78.724 130.144 79.42 129.796V129.844C79.42 130.588 79.804 130.972 80.596 130.972H83.02C83.44 130.972 83.752 130.864 83.944 130.672C84.172 130.444 84.328 129.796 84.4 128.716L83.596 128.464C83.548 129.292 83.476 129.796 83.356 129.964C83.26 130.108 83.092 130.18 82.852 130.18H80.848C80.464 130.18 80.272 130 80.272 129.664V129.304C81.52 128.536 82.54 127.576 83.356 126.4L82.72 125.92C82.072 126.844 81.256 127.636 80.272 128.308V125.392H84.124V124.564H78.16C78.184 124.24 78.196 123.892 78.208 123.532V122.788H77.332V123.532C77.32 123.88 77.308 124.228 77.284 124.564H73.948ZM80.236 122.656L79.804 123.28C80.572 123.592 81.316 124.012 82.048 124.54L82.492 123.856C81.808 123.376 81.052 122.98 80.236 122.656ZM91.024 120.184C90.688 121.984 90.136 123.364 89.368 124.324L90.004 124.864C90.412 124.36 90.772 123.736 91.096 122.968H91.924C91.468 125.272 90.628 126.964 89.392 128.02L89.956 128.668C91.3 127.48 92.212 125.584 92.692 122.968H93.628C93.4 124.792 93.052 126.268 92.584 127.384C92.08 128.488 91.336 129.496 90.328 130.408L90.856 131.092C91.948 130.096 92.764 128.968 93.316 127.72C93.784 126.556 94.144 124.972 94.408 122.968H95.224C95.2 126.448 95.152 128.536 95.068 129.208C94.96 129.976 94.54 130.36 93.808 130.36C93.532 130.36 93.208 130.336 92.824 130.312L93.028 131.092C93.46 131.116 93.76 131.128 93.928 131.128C95.092 131.128 95.74 130.6 95.872 129.544C95.992 128.608 96.052 126.136 96.052 122.128H91.396C91.564 121.6 91.708 121.024 91.84 120.4L91.024 120.184ZM86.68 123.544H87.664V126.784C86.992 127.048 86.296 127.264 85.576 127.432L85.78 128.272C86.428 128.068 87.052 127.84 87.664 127.6V131.2H88.504V127.24C88.828 127.084 89.152 126.928 89.464 126.76V125.944C89.152 126.112 88.84 126.268 88.504 126.424V123.544H89.512V122.704H88.504V120.208H87.664V122.704H86.824C86.896 122.188 86.944 121.66 86.968 121.132L86.212 121.072C86.152 122.476 85.9 123.808 85.444 125.08L86.2 125.296C86.392 124.732 86.548 124.144 86.68 123.544Z" fill="#333333"/>
<g clip-path="url(#clip10_5_522)">
<path d="M76 98.1505C76 99.4346 77.0286 100.516 78.25 100.516C79.4714 100.516 80.5 99.4346 80.5 98.1505C80.5 96.8663 79.4714 95.7849 78.25 95.7849C77.0286 95.7849 76 96.8663 76 98.1505ZM80.05 94.3656C80.05 95.6497 81.0786 96.7311 82.3 96.7311C83.5214 96.7311 84.55 95.6497 84.55 94.3656C84.55 93.0814 83.5214 92 82.3 92C81.0786 92 80.05 93.0814 80.05 94.3656ZM85.45 94.3656C85.45 95.6497 86.4786 96.7311 87.7 96.7311C88.9214 96.7311 89.95 95.6497 89.95 94.3656C89.95 93.0814 88.9214 92 87.7 92C86.4786 92 85.45 93.0814 85.45 94.3656ZM89.5 98.1505C89.5 99.4346 90.5286 100.516 91.75 100.516C92.9714 100.516 94 99.4346 94 98.1505C94 96.8663 92.9714 95.7849 91.75 95.7849C90.5286 95.7849 89.5 96.8663 89.5 98.1505ZM89.8214 103.22C89.05 102.273 88.4071 101.462 87.5714 100.448C87.1214 99.9078 86.6071 99.4346 86.0286 99.2319C85.9643 99.2319 85.8357 99.1643 85.7071 99.1643C85.45 99.0967 85.2571 99.0967 85 99.0967C84.7429 99.0967 84.55 99.0967 84.2929 99.1643C84.1643 99.1643 84.1 99.2319 83.9714 99.2319C83.3286 99.4346 82.8143 99.9753 82.4286 100.448C81.6571 101.395 81.0143 102.206 80.1786 103.22C79.0214 104.436 77.5429 105.855 77.8 107.748C78.0571 108.694 78.7 109.64 79.9214 109.978C80.5643 110.113 82.6857 109.573 84.9357 109.573H85.0643C87.3143 109.573 89.3714 110.113 90.0786 109.978C91.2357 109.708 91.9429 108.762 92.2 107.748C92.4571 105.855 90.9786 104.436 89.8214 103.22Z" fill="#808994"/>
</g>
<path d="M77.32 189.7V190.54H80.608V192.472H78.364V197.164H79.216V196.564H82.9V197.164H83.764V192.472H81.484V190.54H84.58V189.7H81.484V187.696C82.492 187.552 83.392 187.336 84.16 187.06L83.74 186.328C82.108 186.88 80.044 187.156 77.56 187.156L77.812 187.936C78.808 187.936 79.744 187.888 80.608 187.804V189.7H77.32ZM79.216 195.748V193.252H82.9V195.748H79.216ZM74.944 186.316L74.344 186.904C75.208 187.552 75.904 188.176 76.408 188.764L76.996 188.164C76.444 187.54 75.76 186.928 74.944 186.316ZM73.504 189.868V190.696H75.268V195.496C75.268 195.676 75.172 195.844 75.004 196L75.34 196.768C76.168 196.228 76.948 195.616 77.668 194.92L77.44 194.008C76.96 194.476 76.504 194.884 76.096 195.22V189.868H73.504ZM87.544 188.956H89.26C89.248 189.22 89.2 189.472 89.128 189.712H87.352L87.544 188.956ZM90.1 188.956H91.852V189.712H89.992C90.04 189.472 90.076 189.22 90.1 188.956ZM92.692 188.956H95.344V186.796H92.692V186.172H91.852V186.796H90.1V186.172H89.26V186.796H86.524V187.504H89.26V188.272H86.836L86.416 190.372H88.78C88.708 190.468 88.624 190.564 88.54 190.66C88.072 191.092 87.232 191.44 86.008 191.704L86.44 192.388C86.752 192.316 87.064 192.232 87.364 192.136V195.328H88.216V192.832H94.096V195.328H94.948V192.064H87.58C88.276 191.824 88.804 191.524 89.188 191.164C89.404 190.936 89.596 190.672 89.752 190.372H91.852V191.74H92.692V190.372H95.104C95.092 190.684 95.056 190.888 94.984 190.996C94.888 191.116 94.66 191.176 94.288 191.176C94.096 191.176 93.892 191.164 93.676 191.152L93.844 191.764C94.012 191.764 94.204 191.776 94.396 191.776C95.044 191.776 95.464 191.644 95.644 191.38C95.824 191.152 95.92 190.6 95.92 189.712H92.692V188.956ZM90.1 187.504H91.852V188.272H90.1V187.504ZM92.692 187.504H94.528V188.272H92.692V187.504ZM91.804 195.16L91.372 195.808C92.812 196.156 94.216 196.636 95.584 197.26L96.052 196.54C94.768 195.988 93.352 195.532 91.804 195.16ZM90.688 193.252C90.592 194.344 90.28 195.124 89.74 195.592C89.128 196.072 87.868 196.348 85.96 196.444L86.308 197.212C88.468 197.056 89.848 196.684 90.472 196.096C91.036 195.616 91.396 194.704 91.552 193.336L90.688 193.252Z" fill="#333333"/>
<g clip-path="url(#clip11_5_522)">
<path d="M87.9158 175.901C87.0095 176.069 85.8985 175.758 84.7648 175.104C83.0542 174.116 81.2884 172.345 80.0838 170.263C78.0095 166.676 77.561 162.097 79.0774 160.277C79.7117 159.516 81.1251 158.783 81.5681 158.809C81.8393 158.826 82.0556 158.937 82.0556 158.937C82.0722 158.945 82.0879 158.954 82.1022 158.962C82.4386 159.156 82.5936 159.479 82.6515 159.624L83.776 161.921L83.9915 162.361C84.0289 162.468 84.0883 162.666 84.1 162.92C84.1624 164.319 82.6352 165.064 82.1783 166.126C81.9539 166.647 81.9085 167.433 82.5267 168.657L82.5281 168.657C82.9677 169.357 83.3938 169.763 83.7846 169.988C84.0408 170.136 84.2807 170.207 84.5015 170.231C85.6051 170.356 86.9596 169.428 88.1004 170.087C88.1276 170.102 88.1554 170.12 88.1832 170.138C88.3926 170.275 88.5303 170.426 88.6025 170.513L88.8691 170.924C89.3307 171.638 89.7938 172.354 90.2563 173.067C90.3531 173.197 90.5642 173.515 90.5408 173.936C90.5408 173.936 90.5276 174.183 90.4059 174.431C89.879 175.505 88.4078 175.809 87.9158 175.901Z" fill="#808994"/>
</g>
<path d="M74.056 254.584C74.02 255.796 73.864 256.948 73.576 258.052L74.296 258.244C74.596 257.104 74.764 255.904 74.8 254.644L74.056 254.584ZM77.32 253.924C77.02 254.404 76.66 254.872 76.24 255.316V252.34H75.424V256.756C75.4 259.408 74.836 261.34 73.708 262.54L74.356 263.104C75.124 262.252 75.664 261.1 75.964 259.636C76.276 260.092 76.66 260.716 77.092 261.52L77.584 260.8C77.08 260.056 76.588 259.372 76.108 258.772C76.18 258.148 76.228 257.476 76.24 256.756V256.252C76.864 255.676 77.38 255.1 77.788 254.524L77.32 253.924ZM84.004 252.688H77.92V263.188H78.724V262.492H83.152V263.176H84.004V252.688ZM78.724 261.7V253.492H83.152V261.7H78.724ZM79.252 255.784V256.576H80.512C80.32 258.28 79.816 259.576 78.976 260.452L79.564 260.968C80.212 260.272 80.68 259.36 80.98 258.208C81.532 259.132 81.976 259.996 82.336 260.788L82.972 260.332C82.552 259.444 81.952 258.4 81.184 257.2C81.208 257.008 81.244 256.792 81.268 256.576H82.624V255.784H81.316C81.328 255.568 81.34 255.34 81.34 255.112V254.092H80.596V255.112C80.596 255.328 80.584 255.556 80.572 255.784H79.252ZM88.744 252.7V253.516H91.084V254.956H89.068V263.2H89.884V262.624H95.26V263.164H96.076V254.956H93.964V253.516H96.412V252.7H88.744ZM89.884 261.832V260.632H95.26V261.832H89.884ZM91.156 255.736V256.444C91.144 257.452 90.736 258.172 89.944 258.628L90.52 259.12C91.408 258.556 91.864 257.668 91.888 256.444V255.736H93.172V257.752C93.172 258.364 93.484 258.676 94.108 258.676H95.26V259.852H89.884V255.736H91.156ZM91.9 254.956V253.516H93.148V254.956H91.9ZM95.26 257.968H94.288C94.024 257.968 93.892 257.836 93.892 257.584V255.736H95.26V257.968ZM86.392 252.388L85.78 252.976C86.668 253.6 87.364 254.188 87.868 254.74L88.48 254.116C87.916 253.54 87.22 252.964 86.392 252.388ZM86.092 255.256L85.48 255.856C86.356 256.48 87.04 257.08 87.544 257.632L88.156 257.02C87.604 256.432 86.92 255.844 86.092 255.256ZM87.508 258.412C86.98 259.876 86.344 261.304 85.612 262.72L86.416 263.068C87.1 261.712 87.712 260.26 88.264 258.7L87.508 258.412Z" fill="#333333"/>
<g clip-path="url(#clip12_5_522)">
<path d="M80.9092 227.505C81.6972 227.699 82.3883 228.097 82.8797 228.64C83.3711 229.183 83.6366 229.842 83.6367 230.519V233H76.0005V230.519C76.0007 229.842 76.2661 229.183 76.7574 228.64C77.2488 228.097 77.9397 227.699 78.7275 227.506V225.35H80.9087V227.505H80.9092ZM80.9092 224.9H78.7275V224.529C78.7275 224.237 79.0156 224 79.3703 224H80.2664C80.6216 224 80.9092 224.237 80.9092 224.529V224.9ZM83.6367 233.9V240.941C83.6367 241.222 83.5013 241.491 83.2602 241.69C83.0191 241.888 82.6921 242 82.3512 242H77.286C77.1172 242 76.95 241.973 76.7939 241.92C76.6379 241.866 76.4961 241.788 76.3767 241.69C76.2573 241.592 76.1625 241.475 76.0979 241.347C76.0333 241.218 76 241.08 76 240.941V233.9H83.6362H83.6367ZM94 234.35H85.2725V233.159C85.2725 233.02 85.3057 232.882 85.3704 232.753C85.435 232.625 85.5297 232.508 85.6492 232.41C85.7686 232.312 85.9104 232.234 86.0664 232.18C86.2224 232.127 86.3896 232.1 86.5585 232.1H92.714C92.8828 232.1 93.05 232.127 93.2061 232.18C93.3621 232.234 93.5039 232.312 93.6233 232.41C93.7427 232.508 93.8375 232.625 93.9021 232.753C93.9667 232.882 94 233.02 94 233.159V234.35ZM94 235.25V240.941C94 241.08 93.9667 241.218 93.9021 241.347C93.8375 241.475 93.7427 241.592 93.6233 241.69C93.5039 241.788 93.3621 241.866 93.2061 241.92C93.05 241.973 92.8828 242 92.714 242H86.5585C86.2175 242 85.8906 241.888 85.6495 241.69C85.4084 241.491 85.273 241.222 85.273 240.941V235.25H94ZM90.4146 237.993C90.364 237.952 90.3039 237.918 90.2377 237.896C90.1715 237.873 90.1005 237.862 90.0289 237.862C89.9572 237.862 89.8863 237.873 89.8201 237.896C89.7539 237.918 89.6938 237.952 89.6432 237.993L87.324 239.904C87.2251 239.989 87.1705 240.102 87.1719 240.22C87.1734 240.337 87.2308 240.45 87.3318 240.533C87.4328 240.616 87.5693 240.663 87.7121 240.664C87.8548 240.665 87.9925 240.62 88.0954 240.539L90.4151 238.629C90.4658 238.587 90.5061 238.537 90.5335 238.483C90.561 238.428 90.5751 238.37 90.5751 238.311C90.5751 238.252 90.561 238.194 90.5335 238.139C90.5061 238.085 90.4658 238.035 90.4151 237.993H90.4146ZM91.9594 237.674C91.856 237.594 91.7187 237.55 91.5765 237.551C91.4343 237.553 91.2985 237.6 91.1979 237.683C91.0973 237.766 91.0399 237.878 91.0379 237.995C91.0359 238.112 91.0894 238.225 91.187 238.31L91.7662 237.833C91.8696 237.914 92.007 237.958 92.1492 237.956C92.2914 237.955 92.4272 237.907 92.5277 237.824C92.6283 237.742 92.6857 237.63 92.6877 237.513C92.6898 237.396 92.6363 237.282 92.5386 237.197L91.9594 237.674ZM91.3807 237.198C91.2778 237.115 91.1395 237.069 90.9959 237.07C90.8522 237.071 90.7147 237.118 90.6131 237.202C90.5116 237.286 90.4541 237.399 90.4532 237.517C90.4523 237.636 90.5081 237.749 90.6083 237.834L91.1875 237.357C91.2905 237.44 91.4287 237.486 91.5724 237.485C91.7161 237.484 91.8536 237.437 91.9551 237.353C92.0567 237.269 92.1141 237.156 92.115 237.038C92.1159 236.919 92.0602 236.805 91.9599 236.721L91.3807 237.198ZM90.8026 236.721C90.7001 236.637 90.561 236.589 90.4161 236.589C90.2711 236.589 90.1321 236.637 90.0296 236.721C89.9271 236.806 89.8696 236.92 89.8696 237.039C89.8696 237.159 89.9271 237.273 90.0296 237.358L90.6088 236.881C90.7113 236.965 90.8503 237.012 90.9953 237.012C91.1402 237.012 91.2792 236.965 91.3817 236.881C91.4842 236.796 91.5418 236.682 91.5418 236.562C91.5418 236.443 91.4842 236.329 91.3817 236.244L90.8026 236.721Z" fill="#808994"/>
</g>
<path d="M84.064 320.632H81.748C82.204 320.032 82.636 319.312 83.056 318.448L82.18 318.124C81.796 319.024 81.34 319.864 80.812 320.632H73.936V323.32H74.776V321.46H83.212V323.32H84.064V320.632ZM75.772 322.48V323.248H81.004C80.476 323.536 79.72 323.896 78.712 324.34V325.336H73.852V326.152H78.712V327.88C78.712 328.216 78.556 328.384 78.268 328.384C77.752 328.384 77.272 328.372 76.84 328.36L77.044 329.152H78.568C79.24 329.152 79.588 328.828 79.588 328.18V326.152H84.16V325.336H79.588V324.724C80.572 324.244 81.448 323.752 82.24 323.248V322.48H75.772ZM75.64 318.304L74.86 318.688C75.304 319.24 75.724 319.864 76.132 320.56L76.876 320.188C76.492 319.504 76.072 318.88 75.64 318.304ZM78.544 318.076L77.764 318.46C78.172 319.036 78.556 319.696 78.916 320.44L79.684 320.056C79.324 319.336 78.94 318.676 78.544 318.076ZM92.692 323.824C90.892 324.928 88.744 325.864 86.248 326.632L86.596 327.424C89.116 326.608 91.216 325.66 92.908 324.604L92.692 323.824ZM87.916 320.956L87.316 321.532C88.384 322.336 89.224 323.092 89.848 323.812L90.436 323.212C89.752 322.456 88.912 321.7 87.916 320.956ZM91.444 329.128C92.212 329.104 92.848 329.092 93.364 329.092C94.012 329.092 94.444 328.876 94.672 328.444C94.912 328.012 95.056 327.208 95.104 326.02C95.152 325.252 95.2 322.9 95.26 318.94H86.548V319.768H94.384C94.36 322.708 94.348 324.592 94.324 325.432C94.288 326.692 94.18 327.496 94 327.832C93.82 328.156 93.544 328.324 93.184 328.324C92.524 328.324 91.864 328.312 91.204 328.3L91.444 329.128Z" fill="#333333"/>
<path d="M85 290C82.2423 290 80 292.018 80 294.5C80 296.982 82.2423 299 85 299C87.7577 299 90 296.982 90 294.5C90 292.018 87.7577 290 85 290ZM85 298.392C82.6138 298.392 80.676 296.645 80.676 294.5C80.676 294.449 80.6794 294.398 80.6794 294.346C81.3387 294.087 82.8815 293.678 84.6888 294.5C86.5696 295.358 88.5442 294.877 89.3206 294.623C89.247 296.714 87.3394 298.392 85 298.392Z" fill="#808994"/>
<path d="M83 296.5C83 296.633 83.0527 296.76 83.1464 296.854C83.2402 296.947 83.3674 297 83.5 297C83.6326 297 83.7598 296.947 83.8536 296.854C83.9473 296.76 84 296.633 84 296.5C84 296.367 83.9473 296.24 83.8536 296.146C83.7598 296.053 83.6326 296 83.5 296C83.3674 296 83.2402 296.053 83.1464 296.146C83.0527 296.24 83 296.367 83 296.5Z" fill="#808994"/>
<path d="M86 296.5C86 296.633 86.0527 296.76 86.1464 296.854C86.2402 296.947 86.3674 297 86.5 297C86.6326 297 86.7598 296.947 86.8536 296.854C86.9473 296.76 87 296.633 87 296.5C87 296.367 86.9473 296.24 86.8536 296.146C86.7598 296.053 86.6326 296 86.5 296C86.3674 296 86.2402 296.053 86.1464 296.146C86.0527 296.24 86 296.367 86 296.5Z" fill="#808994"/>
<path d="M92.6655 303H91.8787V303.012C91.6351 303.044 91.4118 303.163 91.2503 303.344C91.0887 303.526 90.9998 303.759 91 304C91 304.506 91.3816 304.921 91.8787 304.988V305H92.6655C92.8492 305 93 304.852 93 304.672V303.33C93 303.148 92.8516 303 92.6655 303ZM92.5241 304.531H91.987L91.9423 304.524C91.8128 304.506 91.6943 304.443 91.6083 304.346C91.5223 304.25 91.4745 304.126 91.4735 303.998C91.4735 303.734 91.6737 303.508 91.9423 303.471L91.987 303.464H92.5241V304.531Z" fill="#808994"/>
<path d="M91.7658 305.496C90.9821 305.392 90.3795 304.753 90.3795 303.977C90.3795 303.202 90.9821 302.56 91.7658 302.459V302.444H92.4964L92.9897 299.952C93.0428 299.627 92.8867 299.343 92.6119 299.295C91.1476 299.042 89.6365 298.952 88.1128 299.024C87.454 299.597 86.7047 300 85.9023 300.182C85.6276 300.28 85.3434 300.346 85.0468 300.37L85 308C87.0232 307.487 89.1432 307.448 91.1101 307.89C91.3443 307.943 91.6066 307.764 91.644 307.523L91.9812 305.514H91.7627V305.496H91.7658Z" fill="#808994"/>
<path d="M78.1213 304.988C78.3649 304.956 78.5882 304.837 78.7497 304.655C78.9113 304.473 79.0002 304.24 79 303.999C79 303.492 78.6184 303.076 78.1213 303.009V303H77.3345C77.1508 303 77 303.148 77 303.328V304.672C77 304.852 77.1508 305 77.3345 305H78.1213V304.988ZM78.0106 304.533H77.4735V303.467H78.0106L78.0554 303.474C78.3216 303.511 78.5241 303.738 78.5241 304.001C78.5241 304.265 78.3239 304.491 78.0554 304.528L78.0106 304.533Z" fill="#808994"/>
<path d="M84.1004 300.182C83.2977 300 82.5481 299.597 81.889 299.024C80.3648 298.952 78.853 299.042 77.3881 299.295C77.1164 299.343 76.9571 299.627 77.0102 299.952L77.5037 302.445H78.2346V302.46C79.0186 302.564 79.6214 303.203 79.6214 303.979C79.6214 304.755 79.0186 305.397 78.2346 305.498V305.513H78.0159L78.3533 307.522C78.3939 307.764 78.6531 307.94 78.8874 307.89C80.8552 307.448 82.9791 307.487 85 308L84.9531 300.364C84.6595 300.346 84.3753 300.281 84.1004 300.182Z" fill="#808994"/>
<rect x="0.5" y="0.5" width="269" height="349" rx="4.5" stroke="#9747FF" stroke-dasharray="10 5"/>
<defs>
<clipPath id="clip0_5_522">
<rect width="18" height="18" fill="white" transform="translate(26 158)"/>
</clipPath>
<clipPath id="clip1_5_522">
<rect width="18" height="18" fill="white" transform="translate(26 224)"/>
</clipPath>
<clipPath id="clip2_5_522">
<rect width="18" height="18" fill="white" transform="translate(26 290)"/>
</clipPath>
<clipPath id="clip3_5_522">
<rect width="18" height="18" fill="white" transform="translate(76 26)"/>
</clipPath>
<clipPath id="clip4_5_522">
<rect width="18" height="18" fill="white" transform="translate(176 26)"/>
</clipPath>
<clipPath id="clip5_5_522">
<rect width="18" height="18" fill="white" transform="translate(176 158)"/>
</clipPath>
<clipPath id="clip6_5_522">
<rect width="18" height="18" fill="white" transform="translate(226 26)"/>
</clipPath>
<clipPath id="clip7_5_522">
<rect width="18" height="18" fill="white" transform="translate(126 158)"/>
</clipPath>
<clipPath id="clip8_5_522">
<rect width="18" height="18" fill="white" transform="translate(126 224)"/>
</clipPath>
<clipPath id="clip9_5_522">
<rect width="18" height="18" fill="white" transform="translate(126 290)"/>
</clipPath>
<clipPath id="clip10_5_522">
<rect width="18" height="18" fill="white" transform="translate(76 92)"/>
</clipPath>
<clipPath id="clip11_5_522">
<rect width="18" height="18" fill="white" transform="translate(76 158)"/>
</clipPath>
<clipPath id="clip12_5_522">
<rect width="18" height="18" fill="white" transform="translate(76 224)"/>
</clipPath>
</defs>
</svg>
