<svg width="12" height="14" viewBox="0 0 12 14" fill="none" xmlns="http://www.w3.org/2000/svg">
<path d="M2.5 5V3.83334C2.5 1.90017 4.06667 0.333336 6 0.333336C7.93333 0.333336 9.5 1.89934 9.5 3.83334V5H9.66683C10.6788 5 11.5 5.82184 11.5 6.83334V11.8333C11.5 12.8462 10.6802 13.6667 9.66683 13.6667H2.33333C1.32117 13.6667 0.5 12.8448 0.5 11.8333V6.83334C0.5 5.8205 1.31983 5 2.33317 5H2.5ZM3.5 5H8.5V3.83334C8.5 2.45167 7.38117 1.33334 6 1.33334C4.619 1.33334 3.5 2.4525 3.5 3.83334V5ZM1.5 6.83334V11.8333C1.5 12.2927 1.87367 12.6667 2.33317 12.6667H9.66667C9.77614 12.6668 9.88456 12.6453 9.98573 12.6035C10.0869 12.5617 10.1788 12.5003 10.2562 12.4229C10.3336 12.3455 10.395 12.2536 10.4368 12.1524C10.4787 12.0512 10.5001 11.9428 10.5 11.8333V6.83334C10.5 6.374 10.1263 6 9.66683 6H2.33333C2.22386 5.99987 2.11544 6.02134 2.01427 6.06317C1.91311 6.105 1.82119 6.16638 1.74378 6.24379C1.66638 6.32119 1.605 6.41311 1.56317 6.51428C1.52133 6.61544 1.49987 6.72386 1.5 6.83334Z" fill="#BFBFBF"/>
</svg>
