<svg width="44" height="44" viewBox="0 0 44 44" fill="none" xmlns="http://www.w3.org/2000/svg">
<circle cx="22" cy="22" r="22" fill="#B8CCEF"/>
<circle cx="22" cy="22" r="20" fill="#87A8EB"/>
<g clip-path="url(#clip0_10_535)">
<path d="M24.5955 22.1685C24.8764 22.0899 25.1461 22.0112 25.4045 21.9326C25.6292 21.8652 25.8596 21.7978 26.0955 21.7303C26.3315 21.6629 26.5281 21.6011 26.6854 21.5449L26.4495 22.4382C26.382 22.6854 26.3202 22.8708 26.2641 22.9944C26.1517 23.2978 26.0197 23.5787 25.868 23.8371C25.7163 24.0955 25.5731 24.3202 25.4382 24.5112C25.2809 24.736 25.118 24.9438 24.9495 25.1348L22.8764 25.7584L24.5787 26.0618C24.354 26.2528 24.1124 26.4494 23.854 26.6517C23.6292 26.8202 23.3736 26.9972 23.0871 27.1826C22.8006 27.368 22.5 27.5393 22.1854 27.6966C21.8708 27.8539 21.5197 27.9354 21.132 27.941C20.7444 27.9466 20.3764 27.9213 20.0281 27.8652C19.6236 27.809 19.2191 27.7135 18.8146 27.5787C18.9382 27.3876 19.0731 27.1742 19.2191 26.9382C19.3427 26.736 19.4916 26.4972 19.6657 26.2219C19.8399 25.9466 20.0225 25.6404 20.2135 25.3034C20.7528 24.3933 21.2753 23.5 21.7809 22.6236C22.2865 21.7472 22.7416 20.9551 23.1461 20.2472C23.6068 19.427 24.0506 18.6517 24.4775 17.9213C23.9495 18.5281 23.3933 19.2079 22.809 19.9607C22.3034 20.6011 21.7416 21.3624 21.1236 22.2444C20.5056 23.1264 19.8764 24.0899 19.236 25.1348C19.1011 25.3483 18.9495 25.5955 18.7809 25.8764C18.6124 26.1573 18.4354 26.4551 18.25 26.7697C18.0646 27.0843 17.8736 27.4073 17.677 27.7388C17.4804 28.0702 17.2865 28.3933 17.0955 28.7079C16.6461 29.4382 16.1854 30.2022 15.7135 31C15.7247 30.764 15.7697 30.4607 15.8483 30.0899C15.9157 29.7753 16.0281 29.382 16.1854 28.9101C16.3427 28.4382 16.5674 27.882 16.8596 27.2416C17.0506 26.8371 17.1966 26.5225 17.2978 26.2978C17.3989 26.073 17.4775 25.8989 17.5337 25.7753C17.5899 25.6404 17.6348 25.5506 17.6686 25.5056C17.6124 25.4382 17.6011 25.3034 17.6348 25.1011C17.6573 24.9213 17.7219 24.6601 17.8287 24.3174C17.9354 23.9747 18.118 23.4944 18.3764 22.8764C18.6348 22.2472 18.9747 21.5702 19.3961 20.8455C19.8174 20.1208 20.2922 19.4017 20.8202 18.6882C21.3483 17.9747 21.9214 17.2837 22.5393 16.6152C23.1573 15.9466 23.7893 15.3539 24.4354 14.8371C25.0815 14.3202 25.7275 13.8961 26.3736 13.5646C27.0197 13.2331 27.6461 13.0449 28.2528 13C28.2641 13.3933 28.2247 13.9129 28.1348 14.559C28.045 15.2051 27.9326 15.8961 27.7978 16.632C27.6629 17.368 27.5113 18.1152 27.3427 18.8736C27.1742 19.632 27.0113 20.3202 26.854 20.9382L24.5955 22.1685Z" fill="white"/>
</g>
<defs>
<clipPath id="clip0_10_535">
<rect width="18" height="18" fill="white" transform="translate(13 13)"/>
</clipPath>
</defs>
</svg>
