<svg width="16" height="20" viewBox="0 0 16 20" fill="none" xmlns="http://www.w3.org/2000/svg">
<path d="M7.18754 13.5501C7.18754 13.1151 7.55004 12.7626 8.00004 12.7626C8.44754 12.7626 8.81254 13.1151 8.81254 13.5501C8.81254 13.9851 8.45004 14.3376 8.00004 14.3376C7.78504 14.3376 7.57754 14.2551 7.42504 14.1076C7.27504 13.9576 7.18754 13.7576 7.18754 13.5501ZM14.8975 15.9151C14.6825 15.9151 14.475 15.8326 14.3225 15.6851C14.17 15.5376 14.085 15.3376 14.085 15.1276V9.60512H1.91504V15.1251C1.91504 16.4326 3.00504 17.4901 4.35004 17.4901H13.6825C13.8175 17.4876 13.955 17.4751 14.0875 17.4501V17.4901C14.3975 17.4851 14.6825 17.6526 14.8225 17.9201C14.9625 18.1876 14.935 18.5101 14.75 18.7501C14.565 18.9901 14.255 19.1076 13.95 19.0526C13.86 19.0576 13.7725 19.0651 13.68 19.0651H4.34754C2.10754 19.0651 0.290039 17.3001 0.290039 15.1226V8.03012H15.7075V15.1251C15.7075 15.3351 15.6225 15.5351 15.47 15.6826C15.32 15.8326 15.1125 15.9151 14.8975 15.9151ZM13.68 7.24012C13.235 7.20512 12.8725 6.88012 12.805 6.45262H12.795C12.4025 4.17512 10.375 2.51012 8.00004 2.51012C5.62504 2.51012 3.59754 4.17762 3.20504 6.45262H3.20754C3.13504 6.88262 2.76754 7.20762 2.32004 7.24012C2.02254 7.24012 1.75004 7.08012 1.60754 6.82762C1.46504 6.57262 1.47754 6.26512 1.64004 6.02262C2.23504 3.06512 4.90004 0.932617 8.00004 0.932617C11.1 0.932617 13.765 3.06762 14.36 6.02262C14.435 6.15512 14.4775 6.30262 14.4925 6.45262C14.4925 6.66262 14.4075 6.86262 14.255 7.01012C14.1025 7.15762 13.895 7.24012 13.68 7.24012Z" fill="#545967"/>
</svg>
