<svg width="18" height="18" viewBox="0 0 18 18" fill="none" xmlns="http://www.w3.org/2000/svg">
<path d="M10.9414 2.18105C11.1348 2.18105 11.293 2.33924 11.293 2.53258V6.68061H15.4761C15.6695 6.68061 15.8277 6.8388 15.8277 7.03214V15.4688C15.8277 15.6622 15.6695 15.8203 15.4761 15.8203H2.5399C2.34656 15.8203 2.18837 15.6622 2.18837 15.4688V7.03214C2.18837 6.8388 2.34656 6.68061 2.5399 6.68061H6.72309V2.53258C6.72309 2.33924 6.88127 2.18105 7.07462 2.18105H10.9414ZM10.9414 1.12646H7.07462C6.29774 1.12646 5.6685 1.7557 5.6685 2.53258V5.62603H2.5399C1.76302 5.62603 1.13379 6.25526 1.13379 7.03214V15.4688C1.13379 16.2457 1.76302 16.8749 2.5399 16.8749H15.4761C16.253 16.8749 16.8823 16.2457 16.8823 15.4688V7.03214C16.8823 6.25526 16.253 5.62603 15.4761 5.62603H12.3475V2.53258C12.3475 1.7557 11.7183 1.12646 10.9414 1.12646Z" fill="#7395DD"/>
<path d="M11.2928 5.62598H6.7229V6.68056H11.2928V5.62598Z" fill="#7395DD"/>
<path d="M9.00785 9.1415C9.58963 9.1415 10.0624 9.6143 10.0624 10.1961C10.0624 10.6777 9.73727 11.0978 9.2715 11.2173L9.00785 11.2858L8.7442 11.2173C8.27843 11.0978 7.95327 10.6777 7.95327 10.1961C7.95327 9.6143 8.42607 9.1415 9.00785 9.1415ZM9.00785 8.08691C7.84253 8.08691 6.89868 9.03077 6.89868 10.1961C6.89868 11.1786 7.5701 12.0047 8.48056 12.2385V14.5199H9.53514V12.2402C10.4456 12.0065 11.117 11.1804 11.117 10.1978C11.117 9.03253 10.1714 8.08691 9.00785 8.08691Z" fill="#7395DD"/>
</svg>
