<svg width="18" height="14" viewBox="0 0 18 14" fill="none" xmlns="http://www.w3.org/2000/svg">
<path d="M16.651 5.90698H5.72092C5.1173 5.90698 4.62789 6.39637 4.62789 7.00001C4.62789 7.60307 5.11729 8.09303 5.72092 8.09303H16.651C17.2552 8.09303 17.744 7.60307 17.744 7.00001C17.744 6.39639 17.2551 5.90698 16.651 5.90698ZM1.34889 5.90698C0.745273 5.90698 0.255859 6.39637 0.255859 7.00001C0.255859 7.60307 0.745254 8.09303 1.34889 8.09303C1.95252 8.09303 2.44189 7.60307 2.44189 7.00001C2.44189 6.39639 1.95248 5.90698 1.34889 5.90698ZM1.34889 0.44194C0.745273 0.44194 0.255859 0.931335 0.255859 1.53497C0.255859 2.1386 0.745254 2.628 1.34889 2.628C1.95252 2.628 2.44189 2.1386 2.44189 1.53497C2.44189 0.931335 1.95248 0.44196 1.34889 0.44196V0.44194ZM5.72092 2.62798H16.651C17.2552 2.62798 17.744 2.13858 17.744 1.53495C17.744 0.931315 17.2552 0.44194 16.651 0.44194H5.72092C5.1173 0.44194 4.62789 0.931315 4.62789 1.53495C4.62789 2.13858 5.1173 2.62798 5.72092 2.62798ZM16.651 11.372H5.72092C5.1173 11.372 4.62789 11.862 4.62789 12.4651C4.62789 13.0681 5.11729 13.5581 5.72092 13.5581H16.651C17.2552 13.5581 17.744 13.0681 17.744 12.4651C17.744 11.862 17.2551 11.372 16.651 11.372ZM1.34889 11.372C0.745273 11.372 0.255859 11.862 0.255859 12.4651C0.255859 13.0681 0.745254 13.5581 1.34889 13.5581C1.95252 13.5581 2.44189 13.0681 2.44189 12.4651C2.44189 11.862 1.95248 11.372 1.34889 11.372Z" fill="#BFBFBF"/>
</svg>
