<svg width="44" height="44" viewBox="0 0 44 44" fill="none" xmlns="http://www.w3.org/2000/svg">
<circle cx="22" cy="22" r="22" fill="#B8CCEF"/>
<circle cx="22" cy="22" r="20" fill="#87A8EB"/>
<g clip-path="url(#clip0_18_1817)">
<path d="M33.6994 14.5621C33.5092 14.3775 33.2534 14.2759 32.9882 14.2797C32.7231 14.2836 32.4704 14.3925 32.2856 14.5827L19.9507 27.2842L13.7173 20.8682C13.5314 20.683 13.2802 20.5784 13.0178 20.5767C12.7555 20.5751 12.503 20.6766 12.3147 20.8593C12.1265 21.0421 12.0176 21.2914 12.0115 21.5537C12.0054 21.816 12.1026 22.0702 12.2821 22.2615L19.2298 29.416C19.3231 29.512 19.4346 29.5883 19.5579 29.6404C19.6811 29.6926 19.8136 29.7194 19.9474 29.7194C20.0812 29.7194 20.2137 29.6926 20.3369 29.6404C20.4602 29.5883 20.5718 29.512 20.665 29.416L33.7185 15.9753C33.81 15.8811 33.8821 15.7698 33.9306 15.6478C33.9791 15.5258 34.0031 15.3954 34.0012 15.2641C33.9993 15.1328 33.9715 15.0031 33.9195 14.8826C33.8675 14.762 33.7922 14.6529 33.698 14.5614L33.6994 14.5621Z" fill="white"/>
</g>
<defs>
<clipPath id="clip0_18_1817">
<rect width="22" height="22" fill="white" transform="translate(12 11)"/>
</clipPath>
</defs>
</svg>
