<svg width="30" height="30" viewBox="0 0 30 30" fill="none" xmlns="http://www.w3.org/2000/svg">
<circle cx="15" cy="15" r="15" fill="#ECF3FD"/>
<path d="M11.5076 15.421C11.6798 17.3456 12.0278 21.4145 12.0278 22.1562C12.0366 22.2301 12.0384 22.3039 12.0366 22.3777C12.0138 23.2811 11.2738 23.9982 10.3756 23.9982H10.3335C10.3212 23.9982 10.3089 23.9965 10.2966 23.9965C9.32282 23.9315 8.58637 23.0878 8.6514 22.1141C8.6514 21.5358 9.02051 17.3772 9.19451 15.384C9.22967 14.9921 9.05566 14.6107 8.73753 14.3787C7.50191 13.484 6.78479 12.0182 6.86212 10.4679C6.86212 8.0002 8.41764 6 10.3335 6C12.2493 6 13.8066 8.0002 13.8066 10.5101C13.8909 12.0551 13.1844 13.5192 11.9593 14.4191C11.6429 14.6494 11.4724 15.0308 11.5076 15.421ZM21.1869 6C21.498 6 21.7493 6.25134 21.7493 6.56245V11.3432C21.7493 12.2748 21.3715 13.1184 20.7615 13.7301C20.5366 13.9551 20.2782 14.1502 19.997 14.3049C19.8405 14.391 19.7491 14.5632 19.7702 14.7407L20.5137 21.4725C20.5752 22.847 19.5997 24 18.3764 24C17.1531 24 16.1776 22.847 16.2391 21.4725L17.0266 14.7583C17.0477 14.5826 16.958 14.4138 16.8016 14.3312C15.7294 13.7617 15 12.6386 15 11.3432V6.56245C15 6.25134 15.2513 6 15.5624 6C15.8735 6 16.1249 6.25134 16.1249 6.56245V11.2026C16.1249 11.4364 16.313 11.6245 16.5467 11.6245C16.7805 11.6245 16.9686 11.4364 16.9686 11.2026V6.56245C16.9686 6.25134 17.2199 6 17.531 6C17.8421 6 18.0934 6.25134 18.0934 6.56245V11.3432C18.0934 11.4979 18.22 11.6245 18.3747 11.6245C18.5293 11.6245 18.6559 11.4979 18.6559 11.3432V6.56245C18.6559 6.25134 18.9072 6 19.2183 6C19.5294 6 19.7808 6.25134 19.7808 6.56245V11.2026C19.7808 11.4364 19.9689 11.6245 20.2026 11.6245C20.4364 11.6245 20.6245 11.4364 20.6245 11.2026V6.56245C20.6245 6.25134 20.8758 6 21.1869 6Z" fill="#3295FA"/>
</svg>
