<svg width="10" height="6" viewBox="0 0 10 6" fill="none" xmlns="http://www.w3.org/2000/svg">
<path d="M0.499994 0.799945C0.559079 0.740833 0.629232 0.693941 0.706444 0.661948C0.783657 0.629955 0.866416 0.613488 0.949994 0.613488C1.03357 0.613488 1.11633 0.629955 1.19354 0.661948C1.27076 0.693941 1.34091 0.740833 1.39999 0.799945L4.99999 4.39994L8.59999 0.799945C8.83849 0.561445 9.21924 0.551945 9.46924 0.771445L9.49974 0.799945C9.55886 0.85903 9.60575 0.929183 9.63774 1.0064C9.66973 1.08361 9.6862 1.16637 9.6862 1.24995C9.6862 1.33352 9.66973 1.41628 9.63774 1.49349C9.60575 1.57071 9.55886 1.64086 9.49974 1.69994L5.44999 5.74994C5.39091 5.80906 5.32076 5.85595 5.24354 5.88794C5.16633 5.91993 5.08357 5.9364 4.99999 5.9364C4.91642 5.9364 4.83366 5.91993 4.75644 5.88794C4.67923 5.85595 4.60908 5.80906 4.54999 5.74994L0.499994 1.69994C0.440882 1.64086 0.39399 1.57071 0.361997 1.49349C0.330004 1.41628 0.313538 1.33352 0.313538 1.24995C0.313538 1.16637 0.330004 1.08361 0.361997 1.0064C0.39399 0.929183 0.440882 0.85903 0.499994 0.799945Z" fill="white"/>
</svg>
