<svg width="18" height="18" viewBox="0 0 18 18" fill="none" xmlns="http://www.w3.org/2000/svg">
<g clip-path="url(#clip0_605_192)">
<path d="M16.1089 4.8107H15.7858V3.19051C15.7858 2.65803 15.3944 2.02542 14.9165 1.78649C14.9165 1.78649 13.1962 0.926331 8.98868 0.926331C4.78118 0.926331 3.05858 1.78649 3.05858 1.78649C2.58072 2.02542 2.18932 2.65803 2.18932 3.19051V4.8107H1.86619C1.60907 4.8113 1.36262 4.91355 1.18059 5.09515C0.998561 5.27676 0.895732 5.52297 0.894531 5.78009V6.75175C0.895132 7.00927 0.997696 7.25607 1.17979 7.43816C1.36188 7.62025 1.60868 7.72282 1.86619 7.72342H2.18932V14.3589C2.19031 14.5596 2.2531 14.755 2.36914 14.9187C2.48519 15.0824 2.64885 15.2064 2.83786 15.2737V15.8153C2.83786 16.1587 2.97427 16.488 3.21709 16.7308C3.45991 16.9737 3.78925 17.1101 4.13265 17.1101C4.47605 17.1101 4.80538 16.9737 5.0482 16.7308C5.29102 16.488 5.42744 16.1587 5.42744 15.8153V15.3306H12.5477V15.8153C12.5477 16.1587 12.6841 16.488 12.9269 16.7308C13.1697 16.9737 13.499 17.1101 13.8424 17.1101C14.1858 17.1101 14.5152 16.9737 14.758 16.7308C15.0008 16.488 15.1372 16.1587 15.1372 15.8153V15.2737C15.3264 15.2066 15.4903 15.0828 15.6064 14.919C15.7224 14.7553 15.7851 14.5597 15.7858 14.3589V7.72342H16.1089C16.3664 7.72282 16.6132 7.62025 16.7953 7.43816C16.9774 7.25607 17.08 7.00927 17.0806 6.75175V5.78009C17.0794 5.52297 16.9765 5.27676 16.7945 5.09515C16.6125 4.91355 16.366 4.8113 16.1089 4.8107ZM5.75057 2.54425C5.75116 2.45874 5.7854 2.37689 5.84587 2.31642C5.90634 2.25595 5.98818 2.22172 6.0737 2.22112H11.9014C11.9869 2.22172 12.0688 2.25595 12.1292 2.31642C12.1897 2.37689 12.2239 2.45874 12.2245 2.54425V3.19051C12.2245 3.27642 12.1906 3.35884 12.13 3.4198C12.0695 3.48076 11.9873 3.51531 11.9014 3.51591H6.0737C5.98779 3.51531 5.9056 3.48076 5.84507 3.4198C5.78454 3.35884 5.75057 3.27642 5.75057 3.19051V2.54425ZM4.29421 14.0358C4.13399 14.0358 3.97737 13.9883 3.84415 13.8993C3.71093 13.8103 3.60709 13.6837 3.54578 13.5357C3.48446 13.3877 3.46842 13.2248 3.49968 13.0677C3.53094 12.9105 3.60809 12.7662 3.72139 12.6529C3.83468 12.5396 3.97903 12.4624 4.13617 12.4312C4.29331 12.3999 4.4562 12.416 4.60422 12.4773C4.75225 12.5386 4.87877 12.6424 4.96778 12.7756C5.0568 12.9089 5.10431 13.0655 5.10431 13.2257C5.10371 13.4404 5.01817 13.6461 4.86637 13.7979C4.71458 13.9497 4.50888 14.0352 4.29421 14.0358ZM13.6809 14.0358C13.5207 14.0358 13.364 13.9883 13.2308 13.8993C13.0976 13.8103 12.9938 13.6837 12.9324 13.5357C12.8711 13.3877 12.8551 13.2248 12.8863 13.0677C12.9176 12.9105 12.9948 12.7662 13.1081 12.6529C13.2213 12.5396 13.3657 12.4624 13.5228 12.4312C13.68 12.3999 13.8429 12.416 13.9909 12.4773C14.1389 12.5386 14.2654 12.6424 14.3545 12.7756C14.4435 12.9089 14.491 13.0655 14.491 13.2257C14.491 13.4406 14.4056 13.6466 14.2537 13.7985C14.1018 13.9505 13.8957 14.0358 13.6809 14.0358ZM14.491 10.313C14.4904 10.3985 14.4561 10.4804 14.3957 10.5408C14.3352 10.6013 14.2534 10.6355 14.1678 10.6361H3.80952C3.72361 10.6361 3.64118 10.6022 3.58022 10.5416C3.51926 10.4811 3.48471 10.3989 3.48411 10.313V5.13383C3.48471 5.04793 3.51926 4.96574 3.58022 4.90521C3.64118 4.84467 3.72361 4.8107 3.80952 4.8107H14.1678C14.2534 4.8113 14.3352 4.84554 14.3957 4.90601C14.4561 4.96648 14.4904 5.04832 14.491 5.13383V10.313Z" fill="#808994"/>
</g>
<defs>
<clipPath id="clip0_605_192">
<rect width="18" height="18" fill="white"/>
</clipPath>
</defs>
</svg>
