<svg width="18" height="18" viewBox="0 0 18 18" fill="none" xmlns="http://www.w3.org/2000/svg">
<g clip-path="url(#clip0_605_566)">
<path d="M16.1704 7.10418C16.1436 7.10418 16.118 7.1053 16.0912 7.10641C15.2559 3.95821 12.3876 1.63971 8.97735 1.63971C8.23016 1.63971 7.50752 1.75123 6.82836 1.95866C6.84509 2.00661 6.85512 2.05679 6.85847 2.10921C6.85959 2.12928 6.86962 2.27872 6.91535 2.48168C7.02129 2.9668 7.32239 3.76305 8.15879 3.87457C8.78553 3.95821 9.25726 3.97494 9.59294 3.96601C10.0502 3.95486 10.2565 3.89687 10.2598 3.89576C10.552 3.79762 10.8631 3.95821 10.9613 4.25039C11.0583 4.54146 10.8955 4.85929 10.6033 4.95631C10.5487 4.97527 10.1896 5.08344 9.43235 5.08344C9.05876 5.08344 8.58926 5.05779 8.01159 4.98084C6.44919 4.7723 5.87598 3.28797 5.76335 2.37686C3.81063 3.32589 2.3408 5.11467 1.82112 7.27146C0.814095 7.2815 0 8.10228 0 9.11154C0 10.1275 0.824132 10.9516 1.84008 10.9516C1.85346 10.9516 1.86573 10.9516 1.87911 10.9505C2.73335 14.0686 5.58826 16.3603 8.97735 16.3603C12.4267 16.3603 15.3228 13.9872 16.1191 10.7832C16.1358 10.7843 16.1536 10.7843 16.1704 10.7843C17.1863 10.7843 18.0105 9.96021 18.0105 8.94426C18.0105 7.92831 17.1863 7.10418 16.1704 7.10418ZM4.96263 8.66546C4.96263 7.80341 5.38752 7.10418 5.91055 7.10418C6.43358 7.10418 6.85847 7.80341 6.85847 8.66546C6.85847 9.52751 6.43358 10.2267 5.91055 10.2267C5.38752 10.2267 4.96263 9.52751 4.96263 8.66546ZM11.8679 12.6634C11.3616 13.5701 10.2286 14.1556 8.98069 14.1556C7.75509 14.1556 6.63097 13.5857 6.11575 12.7036C6.0787 12.6404 6.05448 12.5706 6.04446 12.498C6.03445 12.4255 6.03884 12.3517 6.05738 12.2808C6.07592 12.21 6.10825 12.1435 6.15252 12.0851C6.19679 12.0268 6.25213 11.9777 6.31537 11.9408C6.5819 11.7858 6.92315 11.875 7.07816 12.1404C7.39265 12.6791 8.15656 13.0404 8.98069 13.0404C9.81821 13.0404 10.5866 12.6713 10.8944 12.1203C10.9299 12.0563 10.9778 12 11.0352 11.9545C11.0926 11.909 11.1584 11.8753 11.2289 11.8553C11.2993 11.8353 11.373 11.8294 11.4457 11.838C11.5185 11.8465 11.5888 11.8693 11.6527 11.9051C11.9215 12.0545 12.0174 12.3947 11.8679 12.6634ZM12.1557 10.2267C11.6326 10.2267 11.2077 9.52751 11.2077 8.66546C11.2077 7.80341 11.6326 7.10418 12.1557 7.10418C12.6787 7.10418 13.1036 7.80341 13.1036 8.66546C13.1036 9.52751 12.6787 10.2267 12.1557 10.2267Z" fill="#808994"/>
</g>
<defs>
<clipPath id="clip0_605_566">
<rect width="18" height="18" fill="white"/>
</clipPath>
</defs>
</svg>
