<?xml version="1.0" standalone="no"?><!DOCTYPE svg PUBLIC "-//W3C//DTD SVG 1.1//EN" "http://www.w3.org/Graphics/SVG/1.1/DTD/svg11.dtd"><svg t="1663558662736" class="icon" viewBox="0 0 1024 1024" version="1.1" xmlns="http://www.w3.org/2000/svg" p-id="814" xmlns:xlink="http://www.w3.org/1999/xlink" width="128" height="128"><path d="M974.50666667 317.44c-25.17333333-59.62666667-61.22666667-113.06666667-107.2-159.04S767.89333333 76.48 708.26666667 51.2c-61.44-26.02666667-126.82666667-39.25333333-194.13333334-39.25333333h-1.06666666c-67.30666667 0.10666667-132.69333333 13.33333333-194.13333334 39.36-59.62666667 25.17333333-113.06666667 61.22666667-159.04 107.2s-82.02666667 99.30666667-107.2 158.93333333c-26.02666667 61.54666667-39.25333333 126.82666667-39.36 194.13333333v1.06666667C13.44 579.94666667 26.66666667 645.33333333 52.69333333 706.88c25.17333333 59.62666667 61.22666667 113.06666667 107.2 159.04 45.97333333 45.97333333 99.41333333 82.02666667 159.04 107.2 61.65333333 26.13333333 127.25333333 39.36 194.66666667 39.36 67.52 0 133.01333333-13.22666667 194.77333333-39.36 59.52-25.17333333 113.06666667-61.22666667 159.04-107.2 45.97333333-45.97333333 82.02666667-99.41333333 107.2-159.04 26.13333333-61.65333333 39.36-127.25333333 39.36-194.77333333s-13.33333333-133.01333333-39.46666666-194.66666667zM802.98666667 801.6c-66.45333333 66.45333333-151.78666667 107.2-243.94666667 117.33333333V807.78666667c0-25.06666667-20.37333333-45.44-45.44-45.44s-45.44 20.37333333-45.44 45.44v111.25333333c-92.16-10.13333333-177.49333333-50.88-243.94666667-117.44-66.45333333-66.45333333-107.30666667-151.78666667-117.44-243.94666667h111.14666667c25.06666667 0 45.44-20.37333333 45.44-45.44s-20.37333333-45.44-45.44-45.44H106.77333333c10.13333333-92.16 50.88-177.49333333 117.44-243.94666666 66.45333333-66.45333333 151.78666667-107.30666667 243.94666667-117.44V216.53333333c0 25.06666667 20.37333333 45.44 45.44 45.44s45.44-20.37333333 45.44-45.44V105.38666667c92.16 10.13333333 177.49333333 50.88 243.94666667 117.44 66.45333333 66.45333333 107.30666667 151.78666667 117.44 243.94666666H786.45333333c-25.06666667 0-45.44 20.37333333-45.44 45.44s20.37333333 45.44 45.44 45.44h133.97333334c-10.13333333 92.05333333-50.98666667 177.38666667-117.44 243.94666667z" p-id="815" fill="#1296db"></path></svg>