<svg width="18" height="18" viewBox="0 0 18 18" fill="none" xmlns="http://www.w3.org/2000/svg">
<g clip-path="url(#clip0_605_572)">
<path d="M0 6.15047C0 7.43464 1.02857 8.51604 2.25 8.51604C3.47143 8.51604 4.5 7.43464 4.5 6.15047C4.5 4.86631 3.47143 3.78491 2.25 3.78491C1.02857 3.78491 0 4.86631 0 6.15047ZM4.05 2.36557C4.05 3.64973 5.07857 4.73113 6.3 4.73113C7.52143 4.73113 8.55 3.64973 8.55 2.36557C8.55 1.0814 7.52143 2.77215e-08 6.3 0C5.07857 -2.77215e-08 4.05 1.0814 4.05 2.36557ZM9.45 2.36557C9.45 3.64973 10.4786 4.73113 11.7 4.73113C12.9214 4.73113 13.95 3.64973 13.95 2.36557C13.95 1.0814 12.9214 2.77215e-08 11.7 0C10.4786 -2.77215e-08 9.45 1.0814 9.45 2.36557ZM13.5 6.15047C13.5 7.43464 14.5286 8.51604 15.75 8.51604C16.9714 8.51604 18 7.43464 18 6.15047C18 4.86631 16.9714 3.78491 15.75 3.78491C14.5286 3.78491 13.5 4.86631 13.5 6.15047ZM13.8214 11.2195C13.05 10.2733 12.4071 9.46227 11.5714 8.44845C11.1214 7.90775 10.6071 7.43464 10.0286 7.23187C9.96429 7.23187 9.83571 7.16429 9.70714 7.16429C9.45 7.0967 9.25714 7.0967 9 7.0967C8.74286 7.0967 8.55 7.0967 8.29286 7.16429C8.16429 7.16429 8.1 7.23187 7.97143 7.23187C7.32857 7.43464 6.81429 7.97534 6.42857 8.44845C5.65714 9.39468 5.01429 10.2057 4.17857 11.2195C3.02143 12.4361 1.54286 13.8555 1.8 15.7479C2.05714 16.6941 2.7 17.6404 3.92143 17.9783C4.56429 18.1135 6.68572 17.5728 8.93572 17.5728H9.06429C11.3143 17.5728 13.3714 18.1135 14.0786 17.9783C15.2357 17.708 15.9429 16.7617 16.2 15.7479C16.4571 13.8555 14.9786 12.4361 13.8214 11.2195Z" fill="#808994"/>
</g>
<defs>
<clipPath id="clip0_605_572">
<rect width="18" height="18" fill="white"/>
</clipPath>
</defs>
</svg>
