<svg width="18" height="18" viewBox="0 0 18 18" fill="none" xmlns="http://www.w3.org/2000/svg">
<g clip-path="url(#clip0_605_585)">
<path d="M17.5554 17.1463H15.615C15.417 17.1463 15.255 16.9339 15.255 16.7341L15.2532 16.7845C15.264 15.0682 14.6538 11.6554 11.6874 7.28637L11.6784 7.27557C11.6564 7.24449 11.6445 7.20743 11.6442 7.16937C11.6442 7.09017 11.7666 7.02357 11.835 6.99837L11.7612 6.99657C13.527 6.30852 15.2838 7.26477 16.002 7.77283L16.0038 7.77103C16.0317 7.79228 16.0656 7.80431 16.1007 7.80546C16.1358 7.80661 16.1704 7.79681 16.1996 7.77742C16.2289 7.75804 16.2514 7.73003 16.2641 7.69728C16.2767 7.66452 16.2788 7.62865 16.2702 7.59462L16.2666 7.57662C15.6852 5.27262 13.806 4.57962 13.0878 4.39782V4.39242C13.0562 4.38613 13.0269 4.37158 13.0028 4.35024C12.9787 4.32891 12.9607 4.30156 12.9506 4.27099C12.9406 4.24042 12.9388 4.20772 12.9455 4.17624C12.9522 4.14476 12.9671 4.11563 12.9888 4.09182C13.6458 3.29936 14.8158 3.26337 15.5106 3.29397V3.29216C15.5556 3.29169 15.5987 3.27347 15.6303 3.24145C15.662 3.20943 15.6798 3.16621 15.6798 3.12116C15.6799 3.09561 15.6742 3.07036 15.6633 3.04725C15.6524 3.02413 15.6365 3.00373 15.6168 2.98751C13.5252 1.33061 11.4084 2.53751 10.665 2.97491L10.6434 2.99291C10.7172 2.90111 10.6056 2.99651 10.5732 2.99651C10.5494 2.99652 10.5259 2.9918 10.5039 2.98264C10.4819 2.97348 10.462 2.96006 10.4453 2.94316C10.4285 2.92625 10.4153 2.9062 10.4064 2.88415C10.3974 2.8621 10.393 2.8385 10.3932 2.81471H10.3878C10.3194 1.41926 10.5246 0.689809 10.7712 0.251957C10.7882 0.221247 10.7953 0.186006 10.7915 0.151097C10.7876 0.116187 10.7731 0.0833304 10.7498 0.0570595C10.7264 0.0307886 10.6956 0.0123987 10.6614 0.00442756C10.6272 -0.00354358 10.5913 -0.000703178 10.5588 0.0125568L10.5606 0.0161569C9.261 0.500808 8.4024 1.79546 8.1144 2.26931V2.23466C8.0838 2.28866 8.0244 2.35931 7.9596 2.35931C7.91725 2.35929 7.87633 2.34394 7.8444 2.31611L7.8408 2.28731C6.09481 1.18481 4.51801 1.43906 3.71161 1.80446L3.70441 1.80626C3.67106 1.82013 3.64317 1.84452 3.62497 1.87572C3.60677 1.90692 3.59927 1.94321 3.60361 1.97906C3.60702 2.01807 3.62372 2.05472 3.65092 2.0829C3.67811 2.11108 3.71415 2.12906 3.75301 2.13386L3.76201 2.13026C4.46581 2.24366 5.57821 2.65631 6.08581 4.14402H6.13261C6.1426 4.16752 6.14752 4.19287 6.14704 4.21841C6.14656 4.24395 6.14068 4.2691 6.12981 4.29221C6.11893 4.31532 6.1033 4.33587 6.08393 4.35252C6.06456 4.36917 6.04189 4.38154 6.01741 4.38882L6.00121 4.39242C5.33161 4.62462 2.97721 5.77707 4.13101 9.29968C4.14901 9.37528 4.21561 9.43288 4.29661 9.43288C4.37581 9.43288 4.44241 9.37888 4.46041 9.30508C4.80421 8.48383 5.63761 6.83997 6.9498 6.85437L6.831 6.85617C6.93 6.85617 7.011 6.93717 7.011 7.03797L7.0092 7.05777C6.9318 7.86283 6.885 11.0322 8.8794 11.9596L8.865 11.9812C8.8866 11.9902 8.91 11.9974 8.937 11.9974C8.96277 11.9972 8.98814 11.9911 9.01118 11.9795C9.03422 11.968 9.05432 11.9513 9.06995 11.9309C9.08557 11.9104 9.09631 11.8866 9.10135 11.8613C9.10638 11.836 9.10558 11.8099 9.099 11.785L9.0612 11.6086C8.847 10.5552 8.5572 8.05723 10.1916 7.71343L10.2024 7.77463C10.2114 7.77283 10.2168 7.71343 10.2258 7.71343C10.305 7.71343 10.3716 7.77283 10.395 7.84483L10.4022 7.85383C10.9638 9.19168 12.2328 12.1378 11.313 16.7971H11.3112C11.2824 16.9663 11.1348 17.1427 10.9584 17.1427H6.40441C6.61681 17.0995 6.777 16.9393 6.777 16.7143H6.849C7.2342 16.7143 7.5942 16.4187 7.5942 16.0299V11.8156C7.5942 11.4268 7.092 11.254 6.75 11.254H6.471L6.47461 10.4868C6.47461 10.2888 6.30541 10.1268 6.09481 10.1268H4.22281C4.01761 10.1268 3.94561 10.2685 3.94561 10.4436L3.93661 11.25L3.56221 11.2482C3.15001 11.2482 2.81701 11.5582 2.81701 11.9416V16.0389C2.81701 16.4205 3.07981 16.7305 3.49201 16.7305H3.49561C3.49561 16.9519 3.75301 17.1013 3.96541 17.1427H0.446414C0.199814 17.1427 1.44895e-05 17.2975 1.44895e-05 17.5477C-0.000459926 17.6068 0.01072 17.6653 0.0329136 17.72C0.0551072 17.7747 0.0878781 17.8245 0.129348 17.8665C0.170818 17.9085 0.220171 17.942 0.27458 17.9649C0.328988 17.9878 0.387382 17.9997 0.446414 18H17.5536C17.6727 17.999 17.7866 17.9509 17.8703 17.8661C17.9539 17.7814 18.0006 17.6669 18 17.5477C18.0018 17.2993 17.802 17.1463 17.5554 17.1463ZM5.90401 12.5577C5.90401 12.4569 6.03001 12.3723 6.18661 12.3723C6.34141 12.3723 6.4692 12.4533 6.4692 12.5577V15.2878C6.4692 15.3886 6.3432 15.4714 6.18661 15.4714C6.03001 15.4714 5.90401 15.3904 5.90401 15.2878V12.5577ZM4.49821 10.6848H5.90581V11.2468H4.49821V10.6843V10.6848ZM3.93661 12.5577C3.93661 12.4569 4.06261 12.3723 4.21921 12.3723C4.37401 12.3723 4.50181 12.4533 4.50181 12.5577V15.2878C4.50181 15.3886 4.37581 15.4714 4.21921 15.4714C4.06261 15.4714 3.93661 15.3904 3.93661 15.2878V12.5577ZM4.78081 16.5915H5.62321C5.62321 16.8187 5.88061 17.1013 6.09301 17.1427H4.29301C4.50361 17.1013 4.78081 16.8187 4.78081 16.5915Z" fill="#808994"/>
</g>
<defs>
<clipPath id="clip0_605_585">
<rect width="18" height="18" fill="white"/>
</clipPath>
</defs>
</svg>
