<svg width="18" height="18" viewBox="0 0 18 18" fill="none" xmlns="http://www.w3.org/2000/svg">
<g clip-path="url(#clip0_605_44)">
<path d="M4.90918 3.50509C5.69721 3.69876 6.38831 4.09671 6.87972 4.63977C7.37114 5.18283 7.63663 5.84199 7.63673 6.51927V9H0.000496664V6.51927C0.000666539 5.84212 0.266135 5.18308 0.757447 4.64011C1.24876 4.09714 1.93969 3.69922 2.72754 3.5055V1.35H4.90869V3.50509H4.90918ZM4.90918 0.9H2.72754V0.529364C2.72754 0.236864 3.01565 0 3.37031 0H4.26641C4.62157 0 4.90918 0.237273 4.90918 0.529364V0.9ZM7.63673 9.9V16.9413C7.63673 17.2221 7.50129 17.4914 7.2602 17.6899C7.01912 17.8885 6.69213 18 6.35119 18H1.28603C1.11717 18.0001 0.949953 17.9727 0.793927 17.9195C0.637902 17.8663 0.496126 17.7884 0.376701 17.6901C0.257275 17.5917 0.162539 17.475 0.0979032 17.3465C0.0332678 17.218 -1.26058e-08 17.0803 0 16.9413V9.9H7.63623H7.63673ZM18 10.35H9.27246V9.15873C9.27246 9.01966 9.30573 8.88195 9.37036 8.75348C9.435 8.625 9.52973 8.50827 9.64916 8.40995C9.76858 8.31163 9.91036 8.23366 10.0664 8.18047C10.2224 8.12729 10.3896 8.09995 10.5585 8.1H16.714C16.8828 8.09995 17.05 8.12729 17.2061 8.18047C17.3621 8.23366 17.5039 8.31163 17.6233 8.40995C17.7427 8.50827 17.8375 8.625 17.9021 8.75348C17.9667 8.88195 18 9.01966 18 9.15873V10.35ZM18 11.25V16.9413C18 17.0803 17.9667 17.218 17.9021 17.3465C17.8375 17.475 17.7427 17.5917 17.6233 17.6901C17.5039 17.7884 17.3621 17.8663 17.2061 17.9195C17.05 17.9727 16.8828 18.0001 16.714 18H10.5585C10.2175 18 9.89056 17.8885 9.64948 17.6899C9.40839 17.4914 9.27295 17.2221 9.27295 16.9413V11.25H18ZM14.4146 13.9934C14.364 13.9516 14.3039 13.9185 14.2377 13.8958C14.1715 13.8732 14.1005 13.8616 14.0289 13.8616C13.9572 13.8616 13.8863 13.8732 13.8201 13.8958C13.7539 13.9185 13.6938 13.9516 13.6432 13.9934L11.324 15.9038C11.2251 15.9886 11.1705 16.102 11.1719 16.2196C11.1734 16.3371 11.2308 16.4496 11.3318 16.5327C11.4328 16.6158 11.5693 16.663 11.7121 16.6641C11.8548 16.6653 11.9925 16.6202 12.0954 16.5387L14.4151 14.6287C14.4658 14.587 14.5061 14.5375 14.5335 14.483C14.561 14.4285 14.5751 14.37 14.5751 14.311C14.5751 14.252 14.561 14.1936 14.5335 14.1391C14.5061 14.0846 14.4658 14.035 14.4151 13.9934H14.4146ZM15.9594 13.6743C15.856 13.5939 15.7187 13.5498 15.5765 13.5515C15.4343 13.5532 15.2985 13.6004 15.1979 13.6832C15.0973 13.7661 15.0399 13.8779 15.0379 13.995C15.0359 14.1121 15.0894 14.2253 15.187 14.3104L15.7662 13.8334C15.8696 13.9138 16.007 13.9579 16.1492 13.9562C16.2914 13.9545 16.4272 13.9073 16.5277 13.8244C16.6283 13.7416 16.6857 13.6298 16.6877 13.5127C16.6898 13.3956 16.6363 13.2824 16.5386 13.1973L15.9594 13.6743ZM15.3807 13.1977C15.2778 13.1152 15.1395 13.0693 14.9959 13.0702C14.8522 13.071 14.7147 13.1184 14.6131 13.202C14.5116 13.2857 14.4541 13.399 14.4532 13.5173C14.4523 13.6356 14.5081 13.7495 14.6083 13.8342L15.1875 13.3572C15.2905 13.4398 15.4287 13.4856 15.5724 13.4848C15.7161 13.4839 15.8536 13.4366 15.9551 13.3529C16.0567 13.2692 16.1141 13.1559 16.115 13.0376C16.1159 12.9193 16.0602 12.8054 15.9599 12.7207L15.3807 13.1977ZM14.8026 12.7211C14.7001 12.6367 14.561 12.5893 14.4161 12.5893C14.2711 12.5893 14.1321 12.6367 14.0296 12.7211C13.9271 12.8055 13.8696 12.92 13.8696 13.0394C13.8696 13.1587 13.9271 13.2732 14.0296 13.3576L14.6088 12.8806C14.7113 12.965 14.8503 13.0125 14.9953 13.0125C15.1402 13.0125 15.2792 12.965 15.3817 12.8806C15.4842 12.7962 15.5418 12.6817 15.5418 12.5624C15.5418 12.443 15.4842 12.3285 15.3817 12.2441L14.8026 12.7211Z" fill="#808994"/>
</g>
<defs>
<clipPath id="clip0_605_44">
<rect width="18" height="18" fill="white"/>
</clipPath>
</defs>
</svg>
