<svg width="18" height="16" viewBox="0 0 18 16" fill="none" xmlns="http://www.w3.org/2000/svg">
<path d="M17.5922 6.13845L15.75 7.9824C15.5953 8.13708 15.3914 8.21619 15.1875 8.21619C14.9836 8.21619 14.7797 8.13884 14.625 7.9824V15.2949C14.625 15.606 14.3737 15.8574 14.0625 15.8574H9.00002V15.875H3.93752C3.62639 15.875 3.37502 15.6236 3.37502 15.3125V7.99998C3.22034 8.15466 3.01643 8.23376 2.81252 8.23376C2.60862 8.23376 2.40471 8.15642 2.25002 7.99998L0.407837 6.15603C-0.128296 5.6199 -0.128296 4.7533 0.407837 4.21716L3.82854 0.79646C4.07815 0.54685 4.41741 0.406226 4.77249 0.406226H6.37385C6.5092 0.406226 6.63928 0.455444 6.74299 0.543335C7.08928 0.843921 7.99631 1.53123 9.06331 1.53123C10.1321 1.53123 11.0408 0.840405 11.3854 0.541577C11.4873 0.453686 11.6157 0.404468 11.7492 0.404468L13.2223 0.393921H13.2328C13.5862 0.393921 13.9272 0.534546 14.1768 0.785913L17.5922 4.20134C18.1283 4.73572 18.1283 5.60408 17.5922 6.13845Z" fill="#808994"/>
</svg>
