<svg width="18" height="18" viewBox="0 0 18 18" fill="none" xmlns="http://www.w3.org/2000/svg">
<g clip-path="url(#clip0_605_575)">
<path d="M11.9158 17.9006C11.0095 18.0687 9.8985 17.7584 8.7648 17.1038C7.05424 16.1162 5.28843 14.345 4.08383 12.2629C2.0095 8.67564 1.56103 4.09709 3.07744 2.27719C3.71172 1.51577 5.12507 0.783477 5.56812 0.809465C5.83926 0.825785 6.05558 0.937046 6.05558 0.937046C6.07217 0.944677 6.08792 0.953767 6.10223 0.962032C6.43862 1.15624 6.59365 1.47946 6.65151 1.62387L7.77603 3.92073L7.99154 4.36066C8.02887 4.4679 8.0883 4.6658 8.1 4.9199C8.16242 6.31921 6.63519 7.06365 6.17827 8.12612C5.95386 8.64704 5.90853 9.43299 6.52667 10.6565L6.52811 10.6574C6.96768 11.3571 7.39381 11.7628 7.78459 11.9885C8.04081 12.1364 8.28075 12.2068 8.50151 12.231C9.60506 12.3559 10.9596 11.428 12.1004 12.0867C12.1276 12.1024 12.1554 12.1204 12.1832 12.1384C12.3926 12.2749 12.5303 12.4264 12.6025 12.5129L12.8691 12.9239C13.3307 13.6383 13.7938 14.3536 14.2563 15.0666C14.3531 15.1965 14.5642 15.5151 14.5408 15.9359C14.5408 15.9359 14.5276 16.1834 14.4059 16.4306C13.879 17.5052 12.4078 17.8088 11.9158 17.9006Z" fill="#808994"/>
</g>
<defs>
<clipPath id="clip0_605_575">
<rect width="18" height="18" fill="white"/>
</clipPath>
</defs>
</svg>
