<svg width="18" height="18" viewBox="0 0 18 18" fill="none" xmlns="http://www.w3.org/2000/svg">
<g clip-path="url(#clip0_605_143)">
<path d="M17.1239 3.65091C16.8587 3.51338 16.6991 3.21051 16.7261 2.88025C16.7908 2.08686 16.5409 1.97016 16.3815 1.75003C16.2226 1.52995 15.4126 1.50415 15.1474 1.42152C14.8819 1.33896 14.704 0.341924 14.3914 0.100437C14.0665 -0.150488 13.2241 0.0454162 12.8263 0.953731C12.4282 1.86198 12.8263 4.14642 12.8263 4.14642C12.7796 4.49731 12.216 4.31159 12.216 4.31159C11.0223 3.98131 10.0738 4.14642 10.0738 4.14642C8.23443 4.42015 6.98463 5.16726 6.13745 6.10802C4.52536 7.66134 4.15794 9.71528 4.14596 10.4475C4.12504 11.7297 4.56376 12.615 4.37798 12.8627C4.35134 13.0554 3.53828 12.7507 2.30876 12.6976C0.819977 12.6332 -0.0256959 13.4131 0.00059533 13.716C0.0269888 14.0189 0.610977 14.2114 0.876076 14.3491C1.1413 14.4866 1.30093 14.7894 1.27402 15.1196C1.2093 15.913 1.45921 16.0297 1.61845 16.2498C1.77746 16.4699 2.58738 16.4957 2.85272 16.5785C3.11807 16.661 3.29605 17.658 3.6086 17.8995C3.93344 18.1505 4.77582 17.9546 5.17379 17.0463C5.57174 16.138 5.17379 13.8535 5.17379 13.8535C5.22038 13.5026 5.78405 13.6884 5.78405 13.6884C6.9778 14.0186 7.92627 13.8535 7.92627 13.8535C9.76606 13.5798 11.0163 12.8323 11.8635 11.8911C13.4748 10.3379 13.842 8.28462 13.8541 7.55251C13.8751 6.27018 13.4364 5.38499 13.622 5.13726C13.6488 4.94452 14.4618 5.24922 15.6913 5.30237C17.1801 5.36668 18.0257 4.5868 17.9994 4.28399C17.9731 3.98104 17.3891 3.78855 17.1239 3.65091Z" fill="#808994"/>
</g>
<defs>
<clipPath id="clip0_605_143">
<rect width="18" height="18" fill="white"/>
</clipPath>
</defs>
</svg>
